<svg width="632" height="142" viewBox="0 0 632 142" fill="none" xmlns="http://www.w3.org/2000/svg">
<rect width="632" height="142" rx="30" fill="url(#paint0_linear)"/>
<rect width="632" height="142" rx="30" fill="url(#paint1_linear)"/>
<path d="M90.642 8.52261C89.2203 9.47815 85.3109 16.7881 84.6001 19.8219C84.0315 22.2824 84.2447 25.2207 85.2161 27.8007C85.6189 28.9235 86.1165 29.9985 86.306 30.2135C86.8273 30.7868 86.7325 31.2168 86.1165 31.0018C83.4865 30.1896 81.0461 27.1557 80.122 23.5008C79.8377 22.378 79.7429 21.2552 79.814 19.4397C79.9088 16.5014 80.5011 14.9248 82.1123 13.157C83.2259 11.9387 83.297 11.5803 82.5388 10.6965C81.828 9.86037 80.9513 10.0276 80.2642 11.1504C79.5297 12.3687 78.6293 15.8564 78.2976 18.7469C78.037 21.0402 78.0607 21.6375 78.3924 23.238C79.4823 28.6129 82.6809 32.1962 87.159 33.1279L88.6517 33.4384L87.6803 34.394C87.1353 34.8956 86.235 35.7556 85.6663 36.2812C83.8893 37.9295 81.7095 42.0144 80.7854 45.5022C80.2405 47.5805 80.2405 52.5015 80.8091 55.3921C81.3541 58.2348 82.444 61.6509 83.605 64.0636C84.2684 65.4969 85.0266 66.5958 86.3297 68.0052C88.4148 70.2985 88.6043 70.6569 89.1256 72.8307C89.3151 73.7146 89.6705 74.8135 89.8601 75.2674C90.3576 76.2707 90.2155 76.4379 89.4099 75.7929C87.9172 74.6224 84.529 69.3191 84.0078 67.3364C83.4391 65.2342 83.0837 64.6369 82.1597 64.2547C80.6433 63.6575 77.4683 63.1558 75.099 63.1558C72.9429 63.1558 71 63.5142 71 63.8964C71 64.2547 72.7059 66.5958 74.2697 68.3636C75.1701 69.3669 76.7338 71.3258 77.7527 72.7113C78.7715 74.0968 80.4063 76.0796 81.4015 77.1307C82.3966 78.1818 83.7234 79.6868 84.3632 80.4512C85.0029 81.2156 86.543 82.6012 87.7987 83.5089C89.0545 84.4406 90.4761 85.5873 90.9737 86.0411C91.7792 86.8295 91.874 86.8772 92.2294 86.5189C92.4427 86.3039 92.7507 85.5156 92.8928 84.7273L93.1772 83.3417L93.58 84.6556C93.7932 85.3723 94.2434 86.4234 94.5988 86.9967L95.1911 88L96.3047 87.2356C96.9207 86.8056 97.442 86.4472 97.4894 86.4234C97.7737 86.28 95.1911 79.2568 93.651 76.0318C93.2009 75.0524 92.8691 74.2402 92.8928 74.1924C92.9402 74.1685 93.9827 74.5507 95.2148 75.0763C97.9396 76.2229 100.001 76.629 102.039 76.414C103.744 76.2468 107.085 75.1957 108.91 74.2641L110.094 73.6429L110.592 74.7896C110.853 75.4107 111.232 76.2946 111.398 76.7007C111.587 77.1307 111.8 77.489 111.871 77.489C112.369 77.489 113.648 76.7246 113.648 76.4379C113.648 75.8168 112.914 73.8102 112.416 73.1413C112.014 72.5441 111.99 72.4246 112.322 71.8274C112.511 71.4691 113.222 70.5135 113.885 69.7252C115.354 68.0291 116.302 66.118 116.823 63.9203C117.534 60.8148 118.103 56.3715 117.984 54.8665L117.866 53.3854L116.492 54.1021C113.601 55.6548 112.393 55.5115 108.578 53.1943C104.266 50.5666 103.342 49.4199 103.057 46.3144L102.915 44.7616H102.039C101.565 44.7616 100.972 44.905 100.735 45.0961C100.309 45.4066 100.285 45.5261 100.57 46.5294C101.02 48.2494 100.925 49.3005 100.143 50.9249C99.3138 52.6926 97.5131 54.6993 95.5465 56.0609C91.9688 58.5215 89.1256 58.4976 86.6614 56.0132C85.5478 54.8904 84.5764 53.0987 84.3632 51.7132C84.2447 51.0443 84.0788 50.7338 83.8182 50.7338C83.605 50.7338 83.297 50.6382 83.1074 50.5188C82.6572 50.2321 83.0126 49.3005 83.5813 49.3005C83.913 49.3005 84.0315 49.1332 84.0315 48.6316C84.0315 46.6249 85.2635 44.4511 87.0642 43.3044C89.2914 41.8711 91.4949 41.4172 98.7215 40.82C101.257 40.605 104.147 40.2706 105.119 40.0795C106.09 39.8883 107.63 39.745 108.531 39.745C109.431 39.745 110.568 39.6256 111.042 39.4822L111.942 39.1956L110.616 37.6189C108.957 35.6123 107.299 34.3223 105.213 33.3668C101.896 31.8379 96.9918 30.7629 95.0253 31.1451C94.504 31.2407 93.3193 31.5512 92.3716 31.8618L90.6183 32.4112L88.8649 30.6435C87.6803 29.4729 86.8273 28.374 86.3297 27.3468C85.6663 26.0091 85.5952 25.5791 85.5952 23.7635C85.5715 21.088 86.1639 19.1769 88.3437 14.877L90.0259 11.5565H91.0211C92.727 11.5565 93.6273 9.88426 92.6559 8.49872C92.2057 7.82984 91.6608 7.82984 90.642 8.52261ZM95.2385 60.1937C95.665 60.4087 96.6838 61.1731 97.5131 61.8898C98.3424 62.6064 99.4323 63.3947 99.9535 63.6575C101.02 64.2069 103.436 64.5414 106.327 64.5653C108.957 64.5892 110.189 64.9714 110.26 65.7836C110.331 66.5003 110.142 66.7391 108.317 68.3397C107.038 69.4386 106.73 69.5819 105.166 69.8447C104.218 70.0119 103.034 70.0597 102.56 69.9641C100.048 69.5102 95.0253 65.8075 93.9354 63.6336C93.5563 62.917 93.2719 62.2003 93.2719 62.0331C93.2719 61.6509 94.1723 59.8114 94.3618 59.8114C94.4329 59.8114 94.812 59.9787 95.2385 60.1937Z" fill="white"/>
<path d="M42.8688 31.4394C37.6499 32.5434 33.0267 35.8555 28.7371 41.5917C27.0213 43.8957 26.354 45.0478 26.0919 46.2718C25.925 47.0398 25.9489 47.0878 26.4732 46.9198C26.783 46.8238 27.7362 46.3438 28.5941 45.8158C30.4768 44.6877 32.0258 44.1357 36.2677 43.0557C42.2254 41.5677 45.1089 41.4717 52.9017 42.6237C61.7429 43.8957 69.6786 47.7838 73.6584 52.728C74.2065 53.424 74.7785 54 74.8976 54C75.1598 54 74.8976 52.704 74.3495 51.4799C73.9682 50.5679 71.9426 47.5198 69.1544 43.6797C67.3194 41.1597 63.6256 37.5356 61.2425 35.9515C58.7164 34.2955 56.9529 33.3834 54.2839 32.4474C50.0658 30.9354 46.6103 30.6234 42.8688 31.4394Z" fill="white"/>
<path d="M101.824 42.2184C101.573 42.3527 100.611 42.5407 99.6718 42.6482L98 42.8362L98.5496 43.481C99.0763 44.1257 99.0763 44.1257 100.863 43.7227C102.695 43.3198 104 42.7019 104 42.2452C104 41.9229 102.466 41.9229 101.824 42.2184Z" fill="white"/>
<path d="M112 42.4077C112 42.6931 112.163 42.8154 112.535 42.8154C112.815 42.8154 113.28 42.8766 113.583 42.9377C114.071 43.06 114.095 43.0396 113.839 42.53C113.606 42.1223 113.397 42 112.768 42C112.163 42 112 42.0815 112 42.4077Z" fill="white"/>
<path d="M87.078 46.1739C86.8346 46.4761 87.1996 47 87.6376 47C87.8566 47 88.2946 46.859 88.611 46.6776C89.049 46.4157 89.0976 46.3149 88.8543 46.1739C88.4163 45.9321 87.2483 45.9522 87.078 46.1739Z" fill="white"/>
<path d="M42.0572 46.2348C41.7983 46.3305 40.9512 46.498 40.1747 46.5937C37.3745 46.9527 32.1977 49.3215 29.6094 51.4511C27.2327 53.3892 24.2914 58.0073 23.0207 61.8118C20.6676 68.8226 22.456 78.8484 27.6328 87.7495C28.3857 89.0895 29.727 90.8123 31.1859 92.3915C32.4801 93.7793 33.6096 94.9518 33.7037 94.9996C33.7978 95.0236 33.9861 93.8511 34.1273 92.3676C34.8803 84.9739 38.1746 77.987 43.7985 71.8375C49.6341 65.4249 58.6465 60.0172 65.3057 58.9165C67.7058 58.5337 70.7413 58.6294 73.0473 59.1798C74.1768 59.443 75.4004 59.6344 75.7299 59.5865C76.2711 59.5147 76.1299 59.3472 74.0827 57.4809C68.3412 52.2886 60.9054 48.3644 54.0815 46.9766C49.8224 46.1152 43.3279 45.7084 42.0572 46.2348Z" fill="white"/>
<path d="M60.6107 67.1305C59.4358 67.7186 57.6855 68.777 56.7264 69.4591L55 70.7292L55.6234 71.6935C57.5176 74.6806 64.9027 83.7594 66.3893 84.9354C66.9887 85.4293 68.3794 86.8876 69.4824 88.1812C70.5853 89.4984 72.0959 91.1448 72.8872 91.8739C74.9252 93.779 80.536 98.2244 82.1904 99.2593C82.9817 99.7532 83.8688 100.365 84.1805 100.623C84.708 101.117 84.732 101.117 85.5472 100.67C86.4584 100.2 87.7772 98.4361 88.5205 96.6956L89 95.6372L87.0338 94.3435C82.1664 91.1683 74.6855 84.4415 71.2807 80.2078C68.1396 76.3035 64.9746 70.9879 64.1594 68.2125C63.7757 66.9659 63.2243 65.9545 62.9365 66.0016C62.8406 66.0251 61.8096 66.5425 60.6107 67.1305Z" fill="white"/>
<path d="M47.5191 76.7341C46.6491 77.6843 45.5616 79.062 45.1266 79.7747C44.6916 80.4873 44.0391 81.4375 43.6767 81.9126L43 82.7677L44.5708 84.7631C45.4408 85.8558 47.3499 88.35 48.8482 90.3217C54.2373 97.353 57.0164 100.394 61.3422 103.933C62.8646 105.192 64.9913 106.997 66.0546 107.971C68.3262 110.014 70.4287 111.463 71.7578 111.843C72.6519 112.128 72.7486 112.081 74.0777 111.226C74.8511 110.727 76.3252 109.682 77.3644 108.921C79.5876 107.259 79.5876 107.045 77.0985 105.762C75.3102 104.836 70.6703 101.581 67.2145 98.8258C60.1822 93.2435 52.4007 83.029 50.2499 76.5916C49.9357 75.7126 49.5732 75 49.404 75C49.259 75 48.4132 75.7839 47.5191 76.7341Z" fill="white"/>
<path d="M113.19 77.716C112.705 78.1111 112.011 78.5802 111.619 78.7284C110.971 79.0247 110.925 79.1235 111.064 79.9383C111.318 81.4691 112.589 83.8642 113.953 85.4691L115.27 87L116.125 86.5802C117.003 86.1111 117.073 85.8889 116.957 83.7901C116.888 82.358 114.877 77 114.438 77C114.23 77 113.675 77.321 113.19 77.716Z" fill="white"/>
<path d="M117.283 87.2533C116.93 87.5442 116.93 87.6897 117.158 88.4899C117.304 88.9991 117.74 90.2115 118.114 91.2057C118.779 92.8545 118.883 93 119.444 93C120.026 93 120.067 92.9515 119.943 92.3211C119.756 91.3754 118.073 87.0835 117.844 87.0108C117.74 86.9623 117.491 87.0835 117.283 87.2533Z" fill="white"/>
<path d="M97.1621 87.567C96.7997 87.9139 96.1387 88.3598 95.7336 88.5579C94.902 88.9791 94.8594 89.0782 95.2005 90.5398C95.8189 93.1904 96.6717 95.0484 97.7591 96.1136C98.7399 97.0797 98.8678 97.1293 99.4435 96.8568C99.7633 96.7081 100.254 96.3118 100.531 95.965L101 95.3704L100.616 93.2647C100.211 91.0104 99.273 88.4341 98.548 87.4927C97.9937 86.8239 97.9937 86.8239 97.1621 87.567Z" fill="white"/>
<path d="M39.3933 94.4259C39.1157 95.424 39 96.8024 39 99.1314V102.411L39.8791 103.267C40.3417 103.742 41.429 104.55 42.285 105.096C45.1535 106.926 49.9884 112.725 51.1451 115.72L51.5152 116.694L53.0652 116.86C55.0547 117.05 57.4374 117.05 59.4269 116.836L61 116.694L59.8896 115.506C59.2881 114.864 57.0673 112.915 54.9621 111.18C52.857 109.446 50.5668 107.378 49.8496 106.617C47.0505 103.671 43.3028 98.5135 42.0536 95.9469C41.3365 94.4972 40.2723 93 39.9485 93C39.8559 93 39.6015 93.6417 39.3933 94.4259Z" fill="white"/>
<path d="M118.12 94.294C117.613 94.4611 116.599 95.1773 115.9 95.8695L114.621 97.1108L113.487 96.8005C112.376 96.4902 112.352 96.4902 111.821 97.1347C111.363 97.7076 111.17 97.7792 110.446 97.636C109.264 97.4211 108.829 97.7076 107.14 99.7605C105.861 101.288 105.668 101.67 105.668 102.53C105.668 103.055 105.837 103.819 106.054 104.224C106.464 105.036 106.368 105.609 105.644 106.253C105.137 106.683 105.137 106.683 104.679 106.158C104.437 105.848 103.858 104.391 103.4 102.935C102.917 101.455 102.266 99.856 101.928 99.3547L101.3 98.4715L100.601 98.9966C100.022 99.4024 99.925 99.6173 100.046 100.119C100.263 101.097 102.217 106.015 103.038 107.71C103.738 109.142 103.81 109.213 104.196 108.879C104.437 108.664 104.679 108.497 104.751 108.497C105.065 108.497 105.644 110.431 106.03 112.794C106.609 116.255 106.826 116.709 108.25 117.33C108.878 117.616 109.698 117.903 110.06 117.974C111.146 118.189 113.173 117.043 114.717 115.372L116.044 113.916L117.782 114.513C118.747 114.847 120.34 115.42 121.305 115.754C122.27 116.112 123.67 116.446 124.442 116.518L125.817 116.637L127.217 115.396C128.882 113.94 129.461 112.89 129.847 110.67C130.402 107.519 129.413 104.75 127.41 103.866C126.324 103.365 126.445 103.651 125.335 98.9966C124.707 96.3947 124.659 96.2992 123.597 95.4398C121.908 94.0792 119.905 93.6495 118.12 94.294Z" fill="white"/>
<path d="M99.0457 98.3194C98.8575 98.8615 99.281 99.1712 99.7515 98.9002C100.057 98.7066 100.081 98.5904 99.8221 98.3194C99.4222 97.8935 99.2104 97.8935 99.0457 98.3194Z" fill="white"/>
<path d="M38.0649 108.59C38.8024 111.214 38.8738 112.723 38.3266 114.581L38.16 115.15L40.0157 115.303C41.0388 115.369 42.7755 115.587 43.8699 115.762C44.9881 115.937 45.9398 116.046 45.9873 115.981C46.0587 115.937 45.8208 115.347 45.4639 114.691C44.9881 113.794 44.0365 112.832 41.6573 110.755C39.8968 109.246 38.3503 108 38.1838 108C37.9935 108 37.9459 108.197 38.0649 108.59Z" fill="white"/>
<path d="M219.697 70.2991C219.504 106.048 219.601 112.853 220.421 113.641C220.808 114.085 238.233 114.135 239.729 113.691L241.032 113.346V72.1728V31H230.461H219.939L219.697 70.2991Z" fill="white"/>
<path d="M401.88 33.8252L396.323 34.0253V73.6971V113.369L404.831 113.669C429.323 114.62 442.11 113.569 450.766 109.917C459.028 106.465 463.258 99.7114 463.258 90.056C463.258 82.752 461.291 78.9499 455.586 75.1979C451.455 72.5464 451.405 72.3964 454.799 69.995C457.16 68.2941 457.947 67.3936 459.078 64.8422C460.258 62.1907 460.455 61.0901 460.504 57.238C460.504 52.9857 460.406 52.4354 458.684 48.9835C454.553 40.4788 448.946 36.7768 437.143 34.7257C432.372 33.8752 413.684 33.425 401.88 33.8252ZM433.799 52.5855C436.208 53.7361 436.651 54.1363 437.094 55.8373C437.831 58.5387 437.782 59.4893 436.651 61.3403C434.831 64.392 433.799 64.7421 425.733 64.8922L418.454 65.0923V57.9884V50.8845L424.749 51.0846C430.208 51.2347 431.34 51.4348 433.799 52.5855ZM434.044 80.5508C436.504 81.0011 437.389 81.4013 438.372 82.5519C440.143 84.7531 440.782 87.3546 440.143 89.7559C438.864 94.3584 437.684 94.8087 425.979 95.359L418.454 95.6591V87.8548V80.0005H424.7C428.094 80.0005 432.323 80.2507 434.044 80.5508Z" fill="white"/>
<path d="M150.124 66.2409C149.93 109.019 149.93 111.168 150.367 112.633L150.706 114H161.376H172.045V101.303V88.6066H188.049H204.053V78.5958V68.5849H188.049H172.045V61.9924V55.3999H190.474H208.903V45.8774V36.3548H179.562H150.221L150.124 66.2409Z" fill="white"/>
<path d="M571.374 50.3798C561.879 52.4519 553.509 58.8656 549.691 66.9074C540.881 85.359 549.643 106.179 568.927 112.593C576.465 115.059 587.379 114.221 594.526 110.57C596.777 109.386 604.413 104.008 604.413 103.564C604.413 102.528 602.406 99.0745 599.763 95.5223C598.05 93.1541 596.385 90.5887 596.092 89.7993L595.504 88.3192L594.477 89.7993C590.61 95.2263 585.764 97.8904 580.772 97.249C578.129 96.953 571.13 93.8942 571.13 93.0555C571.13 92.2661 573.528 91.1807 577.786 90.0953C579.94 89.5526 584.002 88.0725 586.792 86.8391C595.162 83.0896 601.231 80.7215 604.657 79.8827C607.741 79.0934 607.839 79.044 607.839 77.4653C607.839 74.7025 605.979 68.4368 604.119 64.8352C600.839 58.6189 594.721 53.4386 587.771 51.0705C583.562 49.6397 576.122 49.2944 571.374 50.3798ZM581.506 66.414C584.149 67.006 588.456 68.9301 588.995 69.7688C589.533 70.6569 585.128 72.729 578.227 74.7518C574.458 75.8865 570.346 77.4159 569.025 78.1066C567.752 78.7973 566.627 79.2414 566.48 79.0934C566.088 78.6987 567.703 73.6664 568.927 71.4956C569.563 70.4102 570.983 68.6834 572.06 67.6967C573.822 66.118 574.409 65.8713 576.514 65.8713C577.835 65.8713 580.087 66.118 581.506 66.414Z" fill="white"/>
<path d="M275.54 53.1701C263.957 55.6644 255.745 63.675 252.715 75.4271C248.316 92.4555 259.264 109.628 276.86 113.369C281.455 114.377 290.35 114.137 294.994 112.938C299.784 111.643 304.818 109.052 307.702 106.366L310.39 103.872L308.875 101.186C306.871 97.732 303.743 93.175 302.032 91.2084L300.663 89.6254L299.148 91.784C295.971 96.2929 290.741 98.7872 285.854 98.0677C283.312 97.684 276.665 94.71 276.665 93.9425C276.665 93.271 280.086 91.8799 283.507 91.0645C284.974 90.7287 289.715 89.0019 294.016 87.2271C302.032 83.9173 307.555 81.9027 311.27 80.9913C313.274 80.4636 313.323 80.4157 313.323 78.449C313.323 75.1872 311.954 69.9588 310.292 66.601C308.386 62.7157 303.889 58.2547 299.784 56.1441C293.087 52.6904 283.312 51.4912 275.54 53.1701ZM287.027 68.088C289.666 68.6636 293.967 70.5344 294.505 71.3498C295.042 72.2132 290.644 74.2279 283.752 76.1945C279.988 77.2978 275.883 78.7848 274.563 79.4563C273.292 80.1279 272.168 80.5596 272.021 80.4157C271.581 79.984 273.292 74.4677 274.661 72.1173C277.056 67.9441 280.624 66.7929 287.027 68.088Z" fill="white"/>
<path d="M351.554 52.7018C351.161 52.9422 349.048 53.3748 346.885 53.7113C341.43 54.5285 337.892 56.4033 333.37 60.8738C327.079 67.0749 324.032 74.3816 324.032 83.4189C324.032 88.7547 324.917 92.5042 327.227 96.9267C331.109 104.378 338.236 110.194 347.131 113.126C349.343 113.896 351.259 114.04 357.452 113.992C364.431 113.992 365.414 113.896 369.247 112.646C374.063 111.107 376.914 109.617 379.666 107.166C382.517 104.618 382.812 103.945 381.435 102.359C380.797 101.638 379.371 99.2821 378.192 97.2151C377.012 95.1 375.44 92.6003 374.702 91.687L373.277 90.0526L369.64 93.4175C364.971 97.7439 363.104 98.6572 358.681 98.6572C354.945 98.6572 353.078 97.9842 350.129 95.5807L348.458 94.2347L349.785 93.3695C350.571 92.8407 352.98 91.9754 355.191 91.3986C357.354 90.8217 363.055 88.7066 367.773 86.7357C376.226 83.2266 379.126 82.2171 383.45 81.1115L385.613 80.5346L385.269 76.689C384.925 72.3627 383.598 68.0844 381.632 64.8156C378.536 59.624 371.852 55.1534 364.824 53.471C360.892 52.5576 352.537 52.0769 351.554 52.7018ZM359.369 67.6998C361.777 68.0844 363.005 68.5651 364.627 69.9111C365.807 70.8244 366.642 71.7858 366.495 72.0262C365.905 72.9395 361.384 74.8143 354.995 76.7851C351.358 77.8908 347.524 79.2367 346.492 79.7655C345.411 80.2943 344.477 80.5827 344.33 80.4385C343.74 79.8617 345.264 74.5258 346.541 72.4588C348.212 69.7669 351.603 67.9402 355.978 67.2191C356.125 67.2191 357.649 67.4114 359.369 67.6998Z" fill="white"/>
<path d="M497.769 53.2319C488.275 55.292 481.277 60.8497 477.019 69.761C470.217 84.0863 475.062 100.232 488.813 108.904C494.05 112.21 498.552 113.647 504.816 113.935C515.778 114.51 526.103 111.252 531.046 105.742C532.906 103.682 532.906 103.49 531.633 102.34C531.095 101.861 529.627 99.7052 528.404 97.5971C527.131 95.4411 525.467 92.854 524.635 91.752L523.118 89.7877L520.72 92.3269C518.029 95.2495 512.695 98.0762 509.122 98.5553C505.99 98.9865 503.005 98.0283 500.656 95.9202L498.65 94.0996L499.971 93.2373C500.656 92.8061 502.76 92.0395 504.571 91.6083C506.382 91.1292 511.765 89.1169 516.463 87.1526C524.684 83.703 528.942 82.1699 533.493 81.02C535.499 80.493 535.548 80.4451 535.548 78.4808C535.499 72.3961 532.612 65.2095 528.452 60.9455C521.699 53.9985 508.926 50.7884 497.769 53.2319ZM510.052 67.653C512.939 68.2758 517.197 71.2942 516.463 72.1566C515.68 73.1148 511.765 74.6 504.62 76.756C501.048 77.81 497.377 79.1036 496.447 79.6306C495.567 80.1577 494.686 80.4451 494.539 80.3014C493.903 79.6785 495.664 74.6 497.377 71.9649C498.748 69.9048 499.677 68.9945 500.656 68.7549C501.39 68.6112 502.907 68.18 503.984 67.8446C506.431 67.0301 507.312 67.0301 510.052 67.653Z" fill="white"/>
<defs>
<linearGradient id="paint0_linear" x1="632" y1="7.02655e-06" x2="516.358" y2="453.744" gradientUnits="userSpaceOnUse">
<stop stop-color="#5ACFA4"/>
<stop offset="1" stop-color="#03668C"/>
</linearGradient>
<linearGradient id="paint1_linear" x1="316" y1="0" x2="316" y2="142" gradientUnits="userSpaceOnUse">
<stop stop-color="#FE725A"/>
<stop offset="1" stop-color="#E66583"/>
</linearGradient>
</defs>
</svg>
