<svg width="1006" height="228" viewBox="0 0 1006 228" fill="none" xmlns="http://www.w3.org/2000/svg">
<path d="M381.288 84.3299C378.326 84.5467 374.786 84.9801 373.558 85.2691L371.174 85.8471V150.217C371.174 211.337 371.246 214.804 372.546 217.55C375.147 223.113 378.181 224.846 386.923 225.569C391.908 226.002 403.395 224.991 406.212 223.98C407.152 223.618 407.296 215.382 407.296 159.97C407.296 112.217 407.079 95.6002 406.429 93.4328C404.117 85.8471 396.17 82.9573 381.288 84.3299Z" fill="url(#paint0_linear)"/>
<path d="M381.288 84.3299C378.326 84.5467 374.786 84.9801 373.558 85.2691L371.174 85.8471V150.217C371.174 211.337 371.246 214.804 372.546 217.55C375.147 223.113 378.181 224.846 386.923 225.569C391.908 226.002 403.395 224.991 406.212 223.98C407.152 223.618 407.296 215.382 407.296 159.97C407.296 112.217 407.079 95.6002 406.429 93.4328C404.117 85.8471 396.17 82.9573 381.288 84.3299Z" fill="url(#paint1_linear)"/>
<path d="M691.002 92.927C676.987 94.6609 667.956 97.7674 664.922 101.813C663.405 103.836 663.405 104.197 663.405 157.442V211.048L665.355 214.371C670.124 222.535 682.983 226.364 708.269 227.086C728.498 227.736 741.285 225.713 752.989 220.15C766.643 213.648 773.578 202.45 773.578 186.773C773.578 179.332 771.989 173.408 768.594 168.495C765.92 164.594 759.346 159.465 754.506 157.514C752.7 156.719 751.182 155.997 751.182 155.708C751.182 155.491 752.555 154.697 754.289 153.83C759.346 151.373 763.898 146.75 766.426 141.62C768.377 137.719 768.81 135.768 769.099 130.928C769.894 115.54 763.681 105.064 749.954 98.5621C739.768 93.7939 733.988 92.7825 713.615 92.5658C703.862 92.4213 693.675 92.5658 691.002 92.927ZM721.129 121.464C728.57 123.414 731.676 126.81 731.676 133.023C731.676 136.635 730.954 138.586 728.498 141.187C725.608 144.365 722.646 145.088 710.942 145.521L699.889 145.81V133.529V121.175L702.995 120.886C710.364 120.236 717.227 120.452 721.129 121.464ZM722.14 172.324C730.809 173.625 734.566 176.803 735.072 183.378C735.505 189.23 733.266 193.059 727.775 195.876C723.585 197.971 723.151 198.044 713.687 198.044C708.269 198.044 702.995 197.827 701.911 197.466L699.889 196.96V184.317V171.674H708.775C713.615 171.674 719.611 171.963 722.14 172.324Z" fill="url(#paint2_linear)"/>
<path d="M691.002 92.927C676.987 94.6609 667.956 97.7674 664.922 101.813C663.405 103.836 663.405 104.197 663.405 157.442V211.048L665.355 214.371C670.124 222.535 682.983 226.364 708.269 227.086C728.498 227.736 741.285 225.713 752.989 220.15C766.643 213.648 773.578 202.45 773.578 186.773C773.578 179.332 771.989 173.408 768.594 168.495C765.92 164.594 759.346 159.465 754.506 157.514C752.7 156.719 751.182 155.997 751.182 155.708C751.182 155.491 752.555 154.697 754.289 153.83C759.346 151.373 763.898 146.75 766.426 141.62C768.377 137.719 768.81 135.768 769.099 130.928C769.894 115.54 763.681 105.064 749.954 98.5621C739.768 93.7939 733.988 92.7825 713.615 92.5658C703.862 92.4213 693.675 92.5658 691.002 92.927ZM721.129 121.464C728.57 123.414 731.676 126.81 731.676 133.023C731.676 136.635 730.954 138.586 728.498 141.187C725.608 144.365 722.646 145.088 710.942 145.521L699.889 145.81V133.529V121.175L702.995 120.886C710.364 120.236 717.227 120.452 721.129 121.464ZM722.14 172.324C730.809 173.625 734.566 176.803 735.072 183.378C735.505 189.23 733.266 193.059 727.775 195.876C723.585 197.971 723.151 198.044 713.687 198.044C708.269 198.044 702.995 197.827 701.911 197.466L699.889 196.96V184.317V171.674H708.775C713.615 171.674 719.611 171.963 722.14 172.324Z" fill="url(#paint3_linear)"/>
<path d="M270.825 97.6952C266.78 99.718 263.529 103.475 261.939 107.954C261.217 110.049 261 121.536 261 161.199C261 189.013 261.289 212.998 261.578 214.515C262.3 217.839 265.913 222.101 269.308 223.546C272.848 224.991 285.708 225.424 292.788 224.268L298.567 223.329L298.784 201.15L298.929 178.971L319.374 178.754C338.23 178.537 339.964 178.465 342.203 177.092C346.972 174.275 347.694 172.541 347.694 163.51C347.694 156.719 347.477 154.841 346.105 151.951L344.515 148.556H321.397H298.206V136.996V125.437H322.408C348.344 125.437 348.778 125.365 352.101 121.681C354.557 119.007 355.496 115.034 355.135 108.532C354.919 104.703 354.268 101.524 353.257 99.2123L351.74 95.8168H313.233H274.654L270.825 97.6952Z" fill="url(#paint4_linear)"/>
<path d="M270.825 97.6952C266.78 99.718 263.529 103.475 261.939 107.954C261.217 110.049 261 121.536 261 161.199C261 189.013 261.289 212.998 261.578 214.515C262.3 217.839 265.913 222.101 269.308 223.546C272.848 224.991 285.708 225.424 292.788 224.268L298.567 223.329L298.784 201.15L298.929 178.971L319.374 178.754C338.23 178.537 339.964 178.465 342.203 177.092C346.972 174.275 347.694 172.541 347.694 163.51C347.694 156.719 347.477 154.841 346.105 151.951L344.515 148.556H321.397H298.206V136.996V125.437H322.408C348.344 125.437 348.778 125.365 352.101 121.681C354.557 119.007 355.496 115.034 355.135 108.532C354.919 104.703 354.268 101.524 353.257 99.2123L351.74 95.8168H313.233H274.654L270.825 97.6952Z" fill="url(#paint5_linear)"/>
<path d="M467.476 118.502C448.982 122.042 437.061 130.783 430.053 146.027C426.152 154.408 425.141 160.621 425.502 173.697C425.791 183.45 426.152 185.834 427.742 190.819C433.666 208.664 446.019 220.078 465.092 225.28C470.511 226.725 472.822 226.942 484.598 226.869C500.276 226.869 506.055 225.858 514.219 221.74C518.554 219.5 519.998 218.344 521.66 215.599C525.706 209.025 524.983 201.511 519.637 195.66L516.531 192.264L513.785 193.637C497.675 201.367 478.602 201.8 467.91 194.576C465.237 192.77 461.986 188.507 462.419 187.279C462.564 186.846 474.845 184.678 489.728 182.439C516.603 178.393 520.938 177.382 524.261 174.347C531.774 167.412 529.246 147.255 519.348 135.335C513.063 127.821 503.093 121.681 493.268 119.297C486.549 117.707 473.762 117.274 467.476 118.502ZM485.032 145.666C487.56 146.605 491.1 150.073 492.618 153.035C493.412 154.624 493.918 156.069 493.773 156.286C493.557 156.43 486.477 157.731 477.952 159.104C469.499 160.476 461.841 161.704 460.974 161.921C459.602 162.21 459.313 161.993 459.313 160.548C459.313 156.141 463.214 150.001 467.765 147.4C472.533 144.582 479.902 143.86 485.032 145.666Z" fill="url(#paint6_linear)"/>
<path d="M467.476 118.502C448.982 122.042 437.061 130.783 430.053 146.027C426.152 154.408 425.141 160.621 425.502 173.697C425.791 183.45 426.152 185.834 427.742 190.819C433.666 208.664 446.019 220.078 465.092 225.28C470.511 226.725 472.822 226.942 484.598 226.869C500.276 226.869 506.055 225.858 514.219 221.74C518.554 219.5 519.998 218.344 521.66 215.599C525.706 209.025 524.983 201.511 519.637 195.66L516.531 192.264L513.785 193.637C497.675 201.367 478.602 201.8 467.91 194.576C465.237 192.77 461.986 188.507 462.419 187.279C462.564 186.846 474.845 184.678 489.728 182.439C516.603 178.393 520.938 177.382 524.261 174.347C531.774 167.412 529.246 147.255 519.348 135.335C513.063 127.821 503.093 121.681 493.268 119.297C486.549 117.707 473.762 117.274 467.476 118.502ZM485.032 145.666C487.56 146.605 491.1 150.073 492.618 153.035C493.412 154.624 493.918 156.069 493.773 156.286C493.557 156.43 486.477 157.731 477.952 159.104C469.499 160.476 461.841 161.704 460.974 161.921C459.602 162.21 459.313 161.993 459.313 160.548C459.313 156.141 463.214 150.001 467.765 147.4C472.533 144.582 479.902 143.86 485.032 145.666Z" fill="url(#paint7_linear)"/>
<path d="M583.068 118.502C564.574 122.042 552.653 130.783 545.645 146.027C541.744 154.408 540.733 160.621 541.094 173.697C541.383 183.45 541.744 185.834 543.334 190.819C549.258 208.664 561.612 220.078 580.684 225.28C586.103 226.725 588.414 226.942 600.19 226.869C615.868 226.869 621.647 225.858 629.811 221.74C634.146 219.5 635.59 218.344 637.252 215.599C641.298 209.025 640.575 201.511 635.229 195.66L632.123 192.264L629.377 193.637C613.267 201.367 594.194 201.8 583.502 194.576C580.829 192.77 577.578 188.507 578.011 187.279C578.156 186.846 590.437 184.678 605.32 182.439C632.195 178.393 636.53 177.382 639.853 174.347C647.366 167.412 644.838 147.255 634.94 135.335C628.655 127.821 618.685 121.681 608.86 119.297C602.141 117.707 589.354 117.274 583.068 118.502ZM600.624 145.666C603.152 146.605 606.692 150.073 608.21 153.035C609.004 154.624 609.51 156.069 609.366 156.286C609.149 156.43 602.069 157.731 593.544 159.104C585.091 160.476 577.433 161.704 576.566 161.921C575.194 162.21 574.905 161.993 574.905 160.548C574.905 156.141 578.806 150.001 583.357 147.4C588.125 144.582 595.494 143.86 600.624 145.666Z" fill="url(#paint8_linear)"/>
<path d="M583.068 118.502C564.574 122.042 552.653 130.783 545.645 146.027C541.744 154.408 540.733 160.621 541.094 173.697C541.383 183.45 541.744 185.834 543.334 190.819C549.258 208.664 561.612 220.078 580.684 225.28C586.103 226.725 588.414 226.942 600.19 226.869C615.868 226.869 621.647 225.858 629.811 221.74C634.146 219.5 635.59 218.344 637.252 215.599C641.298 209.025 640.575 201.511 635.229 195.66L632.123 192.264L629.377 193.637C613.267 201.367 594.194 201.8 583.502 194.576C580.829 192.77 577.578 188.507 578.011 187.279C578.156 186.846 590.437 184.678 605.32 182.439C632.195 178.393 636.53 177.382 639.853 174.347C647.366 167.412 644.838 147.255 634.94 135.335C628.655 127.821 618.685 121.681 608.86 119.297C602.141 117.707 589.354 117.274 583.068 118.502ZM600.624 145.666C603.152 146.605 606.692 150.073 608.21 153.035C609.004 154.624 609.51 156.069 609.366 156.286C609.149 156.43 602.069 157.731 593.544 159.104C585.091 160.476 577.433 161.704 576.566 161.921C575.194 162.21 574.905 161.993 574.905 160.548C574.905 156.141 578.806 150.001 583.357 147.4C588.125 144.582 595.494 143.86 600.624 145.666Z" fill="url(#paint9_linear)"/>
<path d="M827.979 118.502C809.484 122.042 797.564 130.783 790.556 146.027C786.655 154.408 785.643 160.621 786.005 173.697C786.294 183.45 786.655 185.834 788.244 190.819C794.168 208.664 806.522 220.078 825.595 225.28C831.013 226.725 833.325 226.942 845.101 226.869C860.778 226.869 866.558 225.858 874.721 221.74C879.056 219.5 880.501 218.344 882.163 215.599C886.208 209.025 885.486 201.511 880.14 195.66L877.033 192.264L874.288 193.637C858.177 201.367 839.105 201.8 828.412 194.576C825.739 192.77 822.488 188.507 822.922 187.279C823.066 186.846 835.348 184.678 850.23 182.439C877.106 178.393 881.44 177.382 884.764 174.347C892.277 167.412 889.748 147.255 879.851 135.335C873.566 127.821 863.596 121.681 853.77 119.297C847.052 117.707 834.264 117.274 827.979 118.502ZM845.534 145.666C848.063 146.605 851.603 150.073 853.12 153.035C853.915 154.624 854.421 156.069 854.276 156.286C854.059 156.43 846.979 157.731 838.454 159.104C830.002 160.476 822.344 161.704 821.477 161.921C820.104 162.21 819.815 161.993 819.815 160.548C819.815 156.141 823.716 150.001 828.268 147.4C833.036 144.582 840.405 143.86 845.534 145.666Z" fill="url(#paint10_linear)"/>
<path d="M827.979 118.502C809.484 122.042 797.564 130.783 790.556 146.027C786.655 154.408 785.643 160.621 786.005 173.697C786.294 183.45 786.655 185.834 788.244 190.819C794.168 208.664 806.522 220.078 825.595 225.28C831.013 226.725 833.325 226.942 845.101 226.869C860.778 226.869 866.558 225.858 874.721 221.74C879.056 219.5 880.501 218.344 882.163 215.599C886.208 209.025 885.486 201.511 880.14 195.66L877.033 192.264L874.288 193.637C858.177 201.367 839.105 201.8 828.412 194.576C825.739 192.77 822.488 188.507 822.922 187.279C823.066 186.846 835.348 184.678 850.23 182.439C877.106 178.393 881.44 177.382 884.764 174.347C892.277 167.412 889.748 147.255 879.851 135.335C873.566 127.821 863.596 121.681 853.77 119.297C847.052 117.707 834.264 117.274 827.979 118.502ZM845.534 145.666C848.063 146.605 851.603 150.073 853.12 153.035C853.915 154.624 854.421 156.069 854.276 156.286C854.059 156.43 846.979 157.731 838.454 159.104C830.002 160.476 822.344 161.704 821.477 161.921C820.104 162.21 819.815 161.993 819.815 160.548C819.815 156.141 823.716 150.001 828.268 147.4C833.036 144.582 840.405 143.86 845.534 145.666Z" fill="url(#paint11_linear)"/>
<path d="M944.293 118.502C925.799 122.042 913.878 130.783 906.871 146.027C902.969 154.408 901.958 160.621 902.319 173.697C902.608 183.45 902.969 185.834 904.559 190.819C910.483 208.664 922.837 220.078 941.909 225.28C947.328 226.725 949.64 226.942 961.416 226.869C977.093 226.869 982.872 225.858 991.036 221.74C995.371 219.5 996.816 218.344 998.477 215.599C1002.52 209.025 1001.8 201.511 996.454 195.66L993.348 192.264L990.603 193.637C974.492 201.367 955.419 201.8 944.727 194.576C942.054 192.77 938.803 188.507 939.236 187.279C939.381 186.846 951.662 184.678 966.545 182.439C993.42 178.393 997.755 177.382 1001.08 174.347C1008.59 167.412 1006.06 147.255 996.165 135.335C989.88 127.821 979.91 121.681 970.085 119.297C963.366 117.707 950.579 117.274 944.293 118.502ZM961.849 145.666C964.378 146.605 967.918 150.073 969.435 153.035C970.229 154.624 970.735 156.069 970.591 156.286C970.374 156.43 963.294 157.731 954.769 159.104C946.316 160.476 938.658 161.704 937.791 161.921C936.419 162.21 936.13 161.993 936.13 160.548C936.13 156.141 940.031 150.001 944.582 147.4C949.351 144.582 956.72 143.86 961.849 145.666Z" fill="url(#paint12_linear)"/>
<path d="M944.293 118.502C925.799 122.042 913.878 130.783 906.871 146.027C902.969 154.408 901.958 160.621 902.319 173.697C902.608 183.45 902.969 185.834 904.559 190.819C910.483 208.664 922.837 220.078 941.909 225.28C947.328 226.725 949.64 226.942 961.416 226.869C977.093 226.869 982.872 225.858 991.036 221.74C995.371 219.5 996.816 218.344 998.477 215.599C1002.52 209.025 1001.8 201.511 996.454 195.66L993.348 192.264L990.603 193.637C974.492 201.367 955.419 201.8 944.727 194.576C942.054 192.77 938.803 188.507 939.236 187.279C939.381 186.846 951.662 184.678 966.545 182.439C993.42 178.393 997.755 177.382 1001.08 174.347C1008.59 167.412 1006.06 147.255 996.165 135.335C989.88 127.821 979.91 121.681 970.085 119.297C963.366 117.707 950.579 117.274 944.293 118.502ZM961.849 145.666C964.378 146.605 967.918 150.073 969.435 153.035C970.229 154.624 970.735 156.069 970.591 156.286C970.374 156.43 963.294 157.731 954.769 159.104C946.316 160.476 938.658 161.704 937.791 161.921C936.419 162.21 936.13 161.993 936.13 160.548C936.13 156.141 940.031 150.001 944.582 147.4C949.351 144.582 956.72 143.86 961.849 145.666Z" fill="url(#paint13_linear)"/>
<path d="M140.462 1.06933C137.553 3.02466 129.553 17.9829 128.098 24.1911C126.935 29.226 127.371 35.2387 129.359 40.518C130.183 42.8156 131.201 45.0153 131.589 45.4552C132.656 46.6284 132.462 47.5083 131.201 47.0684C125.82 45.4064 120.826 39.1982 118.935 31.7191C118.353 29.4216 118.159 27.1241 118.305 23.4089C118.499 17.3963 119.711 14.17 123.008 10.5527C125.286 8.05962 125.432 7.32638 123.88 5.5177C122.426 3.80679 120.632 4.14897 119.226 6.44648C117.723 8.93952 115.88 16.0765 115.202 21.9913C114.668 26.6841 114.717 27.9062 115.396 31.1814C117.626 42.1801 124.171 49.5125 133.335 51.419L136.389 52.0545L134.401 54.0098C133.286 55.0363 131.444 56.7961 130.28 57.8716C126.644 61.2445 122.183 69.6035 120.292 76.7405C119.177 80.9933 119.177 91.0632 120.341 96.9781C121.456 102.795 123.686 109.785 126.062 114.723C127.42 117.656 128.971 119.904 131.638 122.788C135.904 127.481 136.292 128.214 137.359 132.663C137.747 134.471 138.474 136.72 138.862 137.649C139.88 139.702 139.589 140.044 137.941 138.724C134.886 136.329 127.953 125.477 126.886 121.42C125.723 117.118 124.995 115.896 123.105 115.114C120.002 113.892 113.505 112.865 108.656 112.865C104.244 112.865 100.269 113.598 100.269 114.381C100.269 115.114 103.759 119.904 106.959 123.522C108.802 125.575 112.002 129.583 114.087 132.418C116.171 135.254 119.517 139.311 121.553 141.462C123.589 143.613 126.304 146.692 127.614 148.257C128.923 149.821 132.074 152.656 134.644 154.514C137.213 156.42 140.122 158.766 141.141 159.695C142.789 161.308 142.983 161.406 143.71 160.673C144.147 160.233 144.777 158.62 145.068 157.007L145.65 154.171L146.474 156.86C146.91 158.326 147.831 160.477 148.559 161.651L149.771 163.704L152.049 162.139C153.31 161.259 154.377 160.526 154.474 160.477C155.056 160.184 149.771 145.812 146.619 139.213C145.698 137.209 145.019 135.547 145.068 135.449C145.165 135.4 147.298 136.182 149.819 137.258C155.395 139.604 159.613 140.435 163.783 139.995C167.273 139.653 174.11 137.502 177.843 135.596L180.267 134.325L181.285 136.671C181.819 137.942 182.594 139.751 182.934 140.582C183.322 141.462 183.758 142.195 183.903 142.195C184.922 142.195 187.54 140.631 187.54 140.044C187.54 138.773 186.037 134.667 185.019 133.298C184.194 132.076 184.146 131.832 184.825 130.61C185.213 129.876 186.667 127.921 188.025 126.308C191.031 122.837 192.97 118.927 194.037 114.429C195.491 108.075 196.655 98.9823 196.412 95.9027L196.17 92.8719L193.358 94.3384C187.443 97.5158 184.97 97.2225 177.164 92.4808C168.34 87.1037 166.449 84.7573 165.867 78.4025L165.577 75.2251H163.783C162.813 75.2251 161.601 75.5184 161.116 75.9095C160.243 76.5449 160.195 76.7894 160.777 78.8424C161.698 82.362 161.504 84.5129 159.904 87.8369C158.207 91.4543 154.522 95.5605 150.498 98.3468C143.177 103.382 137.359 103.333 132.316 98.2491C130.038 95.9516 128.05 92.2853 127.614 89.4501C127.371 88.0814 127.032 87.4459 126.498 87.4459C126.062 87.4459 125.432 87.2503 125.044 87.0059C124.123 86.4193 124.85 84.5129 126.014 84.5129C126.692 84.5129 126.935 84.1707 126.935 83.1442C126.935 79.038 129.456 74.5896 133.141 72.2432C137.698 69.3102 142.207 68.3814 156.995 67.1594C162.183 66.7194 168.098 66.0351 170.086 65.644C172.073 65.2529 175.225 64.9596 177.067 64.9596C178.91 64.9596 181.237 64.7152 182.207 64.4219L184.049 63.8353L181.334 60.609C177.94 56.5028 174.546 53.8631 170.279 51.9078C163.492 48.7793 153.456 46.5796 149.431 47.3617C148.365 47.5572 145.941 48.1927 144.001 48.8282L140.413 49.9525L136.826 46.3351C134.401 43.9399 132.656 41.6912 131.638 39.5893C130.28 36.8518 130.135 35.9719 130.135 32.2568C130.086 26.7819 131.298 22.8712 135.759 14.0723L139.201 7.27749H141.238C144.728 7.27749 146.571 3.85567 144.583 1.02045C143.662 -0.34828 142.547 -0.34828 140.462 1.06933ZM149.868 106.804C150.74 107.244 152.825 108.808 154.522 110.274C156.219 111.741 158.449 113.354 159.516 113.892C161.698 115.016 166.643 115.7 172.558 115.749C177.94 115.798 180.461 116.58 180.607 118.242C180.752 119.709 180.364 120.198 176.631 123.473C174.013 125.721 173.382 126.015 170.183 126.552C168.243 126.895 165.819 126.992 164.849 126.797C159.71 125.868 149.431 118.291 147.201 113.843C146.425 112.376 145.844 110.91 145.844 110.568C145.844 109.785 147.686 106.021 148.074 106.021C148.219 106.021 148.995 106.364 149.868 106.804Z" fill="white"/>
<path d="M42.7038 47.9641C32.0243 50.2232 22.5638 57.0007 13.7861 68.7386C10.275 73.4534 8.90958 75.8108 8.37316 78.3156C8.03181 79.8872 8.08057 79.9854 9.15341 79.6416C9.78735 79.4451 11.738 78.4629 13.4935 77.3824C17.3459 75.0741 20.5157 73.9445 29.1959 71.7345C41.3872 68.6895 47.2877 68.4931 63.234 70.8505C81.3258 73.4534 97.5646 81.4096 105.708 91.5268C106.83 92.9511 108 94.1298 108.244 94.1298C108.781 94.1298 108.244 91.4777 107.123 88.973C106.342 87.1067 102.197 80.8694 96.4918 73.0114C92.7369 67.8546 85.1783 60.4386 80.3018 57.1972C75.1326 53.8084 71.524 51.9422 66.0623 50.0268C57.4309 46.9327 50.36 46.2942 42.7038 47.9641Z" fill="white"/>
<path d="M163.344 70.021C162.829 70.2959 160.861 70.6807 158.939 70.9005L155.519 71.2853L156.643 72.6046C157.721 73.9239 157.721 73.9239 161.376 73.0994C165.125 72.2748 167.796 71.0105 167.796 70.076C167.796 69.4163 164.657 69.4163 163.344 70.021Z" fill="white"/>
<path d="M184.167 70.4085C184.167 70.9925 184.5 71.2427 185.262 71.2427C185.834 71.2427 186.786 71.3679 187.405 71.493C188.405 71.7433 188.453 71.7016 187.929 70.6587C187.453 69.8245 187.024 69.5742 185.738 69.5742C184.5 69.5742 184.167 69.741 184.167 70.4085Z" fill="white"/>
<path d="M133.169 78.1152C132.671 78.7336 133.418 79.8057 134.314 79.8057C134.762 79.8057 135.659 79.517 136.306 79.146C137.202 78.6099 137.302 78.4038 136.804 78.1152C135.907 77.6204 133.517 77.6616 133.169 78.1152Z" fill="white"/>
<path d="M41.0429 78.24C40.5133 78.4358 38.7798 78.7786 37.1908 78.9744C31.4609 79.7089 20.8676 84.5562 15.571 88.914C10.7077 92.88 4.68883 102.33 2.08867 110.115C-2.72645 124.461 0.933041 144.977 11.5263 163.191C13.0671 165.933 15.8117 169.459 18.7971 172.69C21.4454 175.53 23.7567 177.929 23.9493 178.027C24.1419 178.076 24.5271 175.677 24.816 172.641C26.3568 157.512 33.098 143.214 44.6061 130.631C56.5476 117.509 74.9895 106.443 88.6163 104.191C93.5277 103.407 99.7392 103.603 104.458 104.729C106.769 105.268 109.273 105.659 109.947 105.561C111.055 105.415 110.766 105.072 106.577 101.253C94.8278 90.6277 79.612 82.5977 65.6482 79.7578C56.9328 77.9951 43.6431 77.1628 41.0429 78.24Z" fill="white"/>
<path d="M79.009 120.999C76.6048 122.202 73.023 124.368 71.0604 125.764L67.5278 128.363L68.8035 130.336C72.6796 136.448 87.7916 155.026 90.8336 157.433C92.0602 158.443 94.906 161.428 97.163 164.075C99.42 166.77 102.511 170.139 104.13 171.631C108.301 175.529 119.782 184.626 123.167 186.744C124.787 187.754 126.602 189.006 127.24 189.535C128.319 190.546 128.368 190.546 130.036 189.631C131.901 188.669 134.6 185.059 136.121 181.498L137.102 179.332L133.079 176.685C123.118 170.187 107.81 156.422 100.843 147.759C94.4154 139.769 87.9388 128.892 86.2706 123.213C85.4855 120.662 84.357 118.592 83.7683 118.689C83.572 118.737 81.4622 119.796 79.009 120.999Z" fill="white"/>
<path d="M52.2196 140.65C50.4394 142.595 48.2141 145.414 47.3239 146.872C46.4338 148.331 45.0986 150.275 44.3569 151.247L42.9722 152.997L46.1866 157.08C47.9668 159.316 51.8735 164.42 54.9394 168.455C65.9671 182.843 71.6539 189.065 80.5057 196.307C83.6211 198.884 87.9728 202.578 90.1487 204.571C94.7971 208.751 99.0994 211.716 101.819 212.494C103.649 213.077 103.847 212.98 106.567 211.23C108.149 210.21 111.165 208.071 113.292 206.515C117.841 203.113 117.841 202.675 112.748 200.05C109.089 198.155 99.5939 191.495 92.5224 185.857C78.1321 174.433 62.2088 153.532 57.8076 140.359C57.1647 138.56 56.423 137.102 56.0768 137.102C55.7801 137.102 54.0493 138.706 52.2196 140.65Z" fill="white"/>
<path d="M186.602 142.66C185.609 143.468 184.19 144.428 183.386 144.731C182.062 145.338 181.967 145.54 182.251 147.207C182.771 150.34 185.372 155.241 188.163 158.525L190.858 161.657L192.608 160.798C194.405 159.838 194.547 159.384 194.311 155.089C194.169 152.158 190.054 141.194 189.156 141.194C188.73 141.194 187.595 141.851 186.602 142.66Z" fill="white"/>
<path d="M194.977 162.176C194.254 162.771 194.254 163.069 194.722 164.706C195.02 165.748 195.913 168.229 196.678 170.264C198.039 173.638 198.251 173.935 199.399 173.935C200.59 173.935 200.675 173.836 200.42 172.546C200.037 170.611 196.593 161.828 196.125 161.68C195.913 161.58 195.402 161.828 194.977 162.176Z" fill="white"/>
<path d="M153.804 162.818C153.062 163.528 151.71 164.44 150.881 164.846C149.179 165.707 149.092 165.91 149.79 168.901C151.055 174.325 152.8 178.127 155.026 180.307C157.033 182.284 157.294 182.385 158.472 181.827C159.127 181.523 160.13 180.712 160.698 180.002L161.657 178.786L160.872 174.477C160.043 169.864 158.123 164.592 156.64 162.666C155.506 161.297 155.506 161.297 153.804 162.818Z" fill="white"/>
<path d="M35.5918 176.853C35.0237 178.896 34.787 181.716 34.787 186.482V193.193L36.5859 194.944C37.5326 195.916 39.7575 197.57 41.509 198.688C47.3789 202.433 57.2726 214.299 59.6395 220.426L60.3969 222.42L63.5686 222.76C67.6396 223.149 72.5155 223.149 76.5865 222.712L79.8055 222.42L77.5333 219.988C76.3025 218.675 71.7581 214.688 67.4503 211.138C63.1425 207.588 58.4561 203.357 56.9886 201.801C51.2607 195.77 43.5919 185.218 41.0356 179.965C39.5682 176.999 37.3906 173.935 36.7279 173.935C36.5385 173.935 36.0178 175.248 35.5918 176.853Z" fill="white"/>
<path d="M196.689 176.583C195.652 176.925 193.578 178.391 192.146 179.807L189.529 182.347L187.209 181.712C184.937 181.077 184.888 181.077 183.801 182.396C182.863 183.568 182.468 183.715 180.987 183.422C178.567 182.982 177.678 183.568 174.222 187.769C171.605 190.895 171.21 191.677 171.21 193.436C171.21 194.51 171.555 196.073 172 196.904C172.839 198.564 172.642 199.737 171.16 201.056C170.123 201.935 170.123 201.935 169.185 200.86C168.692 200.225 167.506 197.246 166.568 194.266C165.581 191.237 164.247 187.965 163.556 186.939L162.272 185.131L160.84 186.206C159.655 187.037 159.458 187.476 159.705 188.502C160.149 190.505 164.149 200.567 165.828 204.035C167.26 206.966 167.408 207.113 168.198 206.429C168.692 205.989 169.185 205.647 169.333 205.647C169.975 205.647 171.16 209.604 171.95 214.44C173.136 221.523 173.58 222.451 176.493 223.721C177.777 224.307 179.456 224.893 180.197 225.04C182.419 225.479 186.567 223.135 189.727 219.715L192.443 216.736L195.998 217.957C197.973 218.641 201.232 219.813 203.207 220.497C205.182 221.23 208.046 221.913 209.626 222.06L212.441 222.304L215.305 219.764C218.712 216.785 219.897 214.635 220.687 210.092C221.823 203.645 219.798 197.978 215.7 196.171C213.478 195.145 213.725 195.731 211.453 186.206C210.17 180.882 210.071 180.686 207.898 178.928C204.442 176.144 200.343 175.264 196.689 176.583Z" fill="white"/>
<path d="M157.658 184.82C157.273 185.93 158.14 186.563 159.103 186.009C159.728 185.613 159.777 185.375 159.247 184.82C158.429 183.949 157.995 183.949 157.658 184.82Z" fill="white"/>
<path d="M32.8734 205.838C34.3826 211.207 34.5287 214.294 33.409 218.097L33.0682 219.261L36.8655 219.574C38.9589 219.708 42.5129 220.155 44.7523 220.513C47.0405 220.871 48.9878 221.095 49.0852 220.961C49.2312 220.871 48.7444 219.663 48.0141 218.321C47.0405 216.487 45.0931 214.518 40.2247 210.267C36.6221 207.18 33.4576 204.63 33.1169 204.63C32.7274 204.63 32.63 205.032 32.8734 205.838Z" fill="white"/>
<defs>
<linearGradient id="paint0_linear" x1="407.296" y1="225.672" x2="304.141" y2="202.484" gradientUnits="userSpaceOnUse">
<stop stop-color="#5ACFA4"/>
<stop offset="1" stop-color="#03668C"/>
</linearGradient>
<linearGradient id="paint1_linear" x1="389.235" y1="225.672" x2="389.235" y2="84.0002" gradientUnits="userSpaceOnUse">
<stop stop-color="#FE725A"/>
<stop offset="1" stop-color="#E66583"/>
</linearGradient>
<linearGradient id="paint2_linear" x1="773.578" y1="227.203" x2="556.13" y2="70.3986" gradientUnits="userSpaceOnUse">
<stop stop-color="#5ACFA4"/>
<stop offset="1" stop-color="#03668C"/>
</linearGradient>
<linearGradient id="paint3_linear" x1="718.492" y1="227.203" x2="718.492" y2="92.5104" gradientUnits="userSpaceOnUse">
<stop stop-color="#FE725A"/>
<stop offset="1" stop-color="#E66583"/>
</linearGradient>
<linearGradient id="paint4_linear" x1="355.21" y1="224.93" x2="155.301" y2="96.3343" gradientUnits="userSpaceOnUse">
<stop stop-color="#5ACFA4"/>
<stop offset="1" stop-color="#03668C"/>
</linearGradient>
<linearGradient id="paint5_linear" x1="308.105" y1="224.93" x2="308.105" y2="95.8168" gradientUnits="userSpaceOnUse">
<stop stop-color="#FE725A"/>
<stop offset="1" stop-color="#E66583"/>
</linearGradient>
<linearGradient id="paint6_linear" x1="528.629" y1="226.881" x2="346.036" y2="74.6055" gradientUnits="userSpaceOnUse">
<stop stop-color="#5ACFA4"/>
<stop offset="1" stop-color="#03668C"/>
</linearGradient>
<linearGradient id="paint7_linear" x1="477.031" y1="226.881" x2="477.031" y2="117.793" gradientUnits="userSpaceOnUse">
<stop stop-color="#FE725A"/>
<stop offset="1" stop-color="#E66583"/>
</linearGradient>
<linearGradient id="paint8_linear" x1="644.221" y1="226.881" x2="461.628" y2="74.6055" gradientUnits="userSpaceOnUse">
<stop stop-color="#5ACFA4"/>
<stop offset="1" stop-color="#03668C"/>
</linearGradient>
<linearGradient id="paint9_linear" x1="592.623" y1="226.881" x2="592.623" y2="117.793" gradientUnits="userSpaceOnUse">
<stop stop-color="#FE725A"/>
<stop offset="1" stop-color="#E66583"/>
</linearGradient>
<linearGradient id="paint10_linear" x1="889.131" y1="226.881" x2="706.539" y2="74.6055" gradientUnits="userSpaceOnUse">
<stop stop-color="#5ACFA4"/>
<stop offset="1" stop-color="#03668C"/>
</linearGradient>
<linearGradient id="paint11_linear" x1="837.534" y1="226.881" x2="837.534" y2="117.793" gradientUnits="userSpaceOnUse">
<stop stop-color="#FE725A"/>
<stop offset="1" stop-color="#E66583"/>
</linearGradient>
<linearGradient id="paint12_linear" x1="1005.45" y1="226.881" x2="822.853" y2="74.6055" gradientUnits="userSpaceOnUse">
<stop stop-color="#5ACFA4"/>
<stop offset="1" stop-color="#03668C"/>
</linearGradient>
<linearGradient id="paint13_linear" x1="953.848" y1="226.881" x2="953.848" y2="117.793" gradientUnits="userSpaceOnUse">
<stop stop-color="#FE725A"/>
<stop offset="1" stop-color="#E66583"/>
</linearGradient>
</defs>
</svg>
