<?xml version="1.0" standalone="no"?>
<!DOCTYPE svg PUBLIC "-//W3C//DTD SVG 20010904//EN"
 "http://www.w3.org/TR/2001/REC-SVG-20010904/DTD/svg10.dtd">
<svg version="1.0" xmlns="http://www.w3.org/2000/svg"
 width="1000.000000pt" height="870.000000pt" viewBox="0 0 1000.000000 870.000000"
 preserveAspectRatio="xMidYMid meet">

<g transform="translate(0.000000,870.000000) scale(0.100000,-0.100000)"
fill="#000000" stroke="none">
<path d="M5679 7947 c-60 -40 -225 -346 -255 -473 -24 -103 -15 -226 26 -334
17 -47 38 -92 46 -101 22 -24 18 -42 -8 -33 -111 34 -214 161 -253 314 -12 47
-16 94 -13 170 4 123 29 189 97 263 47 51 50 66 18 103 -30 35 -67 28 -96 -19
-31 -51 -69 -197 -83 -318 -11 -96 -10 -121 4 -188 46 -225 181 -375 370 -414
l63 -13 -41 -40 c-23 -21 -61 -57 -85 -79 -75 -69 -167 -240 -206 -386 -23
-87 -23 -293 1 -414 23 -119 69 -262 118 -363 28 -60 60 -106 115 -165 88 -96
96 -111 118 -202 8 -37 23 -83 31 -102 21 -42 15 -49 -19 -22 -63 49 -206 271
-228 354 -24 88 -39 113 -78 129 -64 25 -198 46 -298 46 -91 0 -173 -15 -173
-31 0 -15 72 -113 138 -187 38 -42 104 -124 147 -182 43 -58 112 -141 154
-185 42 -44 98 -107 125 -139 27 -32 92 -90 145 -128 53 -39 113 -87 134 -106
34 -33 38 -35 53 -20 9 9 22 42 28 75 l12 58 17 -55 c9 -30 28 -74 43 -98 l25
-42 47 32 c26 18 48 33 50 34 12 6 -97 300 -162 435 -19 41 -33 75 -32 77 2 1
46 -15 98 -37 115 -48 202 -65 288 -56 72 7 213 51 290 90 l50 26 21 -48 c11
-26 27 -63 34 -80 8 -18 17 -33 20 -33 21 0 75 32 75 44 0 26 -31 110 -52 138
-17 25 -18 30 -4 55 8 15 38 55 66 88 62 71 102 151 124 243 30 130 54 316 49
379 l-5 62 -58 -30 c-122 -65 -173 -59 -334 38 -182 110 -221 158 -233 288
l-6 65 -37 0 c-20 0 -45 -6 -55 -14 -18 -13 -19 -18 -7 -60 19 -72 15 -116
-18 -184 -35 -74 -111 -158 -194 -215 -151 -103 -271 -102 -375 2 -47 47 -88
122 -97 180 -5 28 -12 41 -23 41 -9 0 -22 4 -30 9 -19 12 -4 51 20 51 14 0 19
7 19 28 0 84 52 175 128 223 94 60 187 79 492 104 107 9 229 23 270 31 41 8
106 14 144 14 38 0 86 5 106 11 l38 12 -56 66 c-70 84 -140 138 -228 178 -140
64 -347 109 -430 93 -22 -4 -72 -17 -112 -30 l-74 -23 -74 74 c-50 49 -86 95
-107 138 -28 56 -31 74 -31 150 -1 112 24 192 116 372 l71 139 42 0 c72 0 110
70 69 128 -19 28 -42 28 -85 -1z m194 -2163 c18 -9 61 -41 96 -71 35 -30 81
-63 103 -74 45 -23 147 -37 269 -38 111 -1 163 -17 166 -51 3 -30 -5 -40 -82
-107 -54 -46 -67 -52 -133 -63 -40 -7 -90 -9 -110 -5 -106 19 -318 174 -364
265 -16 30 -28 60 -28 67 0 16 38 93 46 93 3 0 19 -7 37 -16z"/>
<path d="M3669 6980 c-219 -46 -413 -184 -593 -423 -72 -96 -100 -144 -111
-195 -7 -32 -6 -34 16 -27 13 4 53 24 89 46 79 47 144 70 322 115 250 62 371
66 698 18 371 -53 704 -215 871 -421 23 -29 47 -53 52 -53 11 0 0 54 -23 105
-16 38 -101 165 -218 325 -77 105 -232 256 -332 322 -106 69 -180 107 -292
146 -177 63 -322 76 -479 42z"/>
<path d="M6165 6541 c-11 -5 -53 -12 -94 -16 l-73 -7 24 -24 c23 -24 23 -24
101 -9 80 15 137 38 137 55 0 12 -67 12 -95 1z"/>
<path d="M6600 6520 c0 -14 7 -20 23 -20 12 0 32 -3 45 -6 21 -6 22 -5 11 20
-10 20 -19 26 -46 26 -26 0 -33 -4 -33 -20z"/>
<path d="M5546 6381 c-10 -15 5 -41 23 -41 9 0 27 7 40 16 18 13 20 18 10 25
-18 12 -66 11 -73 0z"/>
<path d="M3644 6370 c-11 -4 -47 -11 -80 -15 -119 -15 -339 -114 -449 -203
-101 -81 -226 -274 -280 -433 -100 -293 -24 -712 196 -1084 32 -56 89 -128
151 -194 55 -58 103 -107 107 -109 4 -1 12 48 18 110 32 309 172 601 411 858
248 268 631 494 914 540 102 16 231 12 329 -11 48 -11 100 -19 114 -17 23 3
17 10 -70 88 -244 217 -560 381 -850 439 -181 36 -457 53 -511 31z"/>
<path d="M4425 5501 c-49 -25 -122 -70 -162 -99 l-72 -54 26 -41 c79 -127 387
-513 449 -563 25 -21 83 -83 129 -138 46 -56 109 -126 142 -157 85 -81 319
-270 388 -314 33 -21 70 -47 83 -58 22 -21 23 -21 57 -2 38 20 93 95 124 169
l20 45 -82 55 c-203 135 -515 421 -657 601 -131 166 -263 392 -297 510 -16 53
-39 96 -51 94 -4 -1 -47 -23 -97 -48z"/>
<path d="M3888 5067 c-36 -40 -81 -98 -99 -128 -18 -30 -45 -70 -60 -90 l-28
-36 65 -84 c36 -46 115 -151 177 -234 223 -296 338 -424 517 -573 63 -53 151
-129 195 -170 94 -86 181 -147 236 -163 37 -12 41 -10 96 26 32 21 93 65 136
97 92 70 92 79 -11 133 -74 39 -266 176 -409 292 -291 235 -613 665 -702 936
-13 37 -28 67 -35 67 -6 0 -41 -33 -78 -73z"/>
<path d="M6657 5041 c-21 -16 -51 -35 -68 -41 -28 -12 -30 -16 -24 -49 11 -62
66 -159 125 -224 l57 -62 37 17 c38 19 41 28 36 113 -3 58 -90 275 -109 275
-9 0 -33 -13 -54 -29z"/>
<path d="M6806 4637 c-17 -12 -17 -18 -6 -51 7 -21 28 -71 46 -112 32 -68 37
-74 64 -74 28 0 30 2 24 28 -9 39 -90 216 -101 219 -5 2 -17 -3 -27 -10z"/>
<path d="M5963 4615 c-17 -14 -48 -32 -67 -40 -39 -17 -41 -21 -25 -80 29
-107 69 -182 120 -225 46 -39 52 -41 79 -30 15 6 38 22 51 36 l22 24 -18 85
c-19 91 -63 195 -97 233 -26 27 -26 27 -65 -3z"/>
<path d="M3527 4340 c-12 -42 -17 -100 -17 -198 l0 -138 38 -36 c20 -20 67
-54 104 -77 124 -77 333 -321 383 -447 l16 -41 67 -7 c86 -8 189 -8 275 1 l68
6 -48 50 c-26 27 -122 109 -213 182 -91 73 -190 160 -221 192 -121 124 -283
341 -337 449 -31 61 -77 124 -91 124 -4 0 -15 -27 -24 -60z"/>
<path d="M6856 4325 c-21 -7 -63 -37 -92 -66 l-53 -52 -47 13 c-46 13 -47 13
-69 -14 -19 -24 -27 -27 -57 -21 -49 9 -67 -3 -137 -89 -53 -64 -61 -80 -61
-116 0 -22 7 -54 16 -71 17 -34 13 -58 -17 -85 -21 -18 -21 -18 -40 4 -10 13
-34 74 -53 135 -20 62 -47 129 -61 150 l-26 37 -29 -22 c-24 -17 -28 -26 -23
-47 9 -41 90 -247 124 -318 29 -60 32 -63 48 -49 10 9 20 16 23 16 13 0 37
-81 53 -180 24 -145 33 -164 92 -190 26 -12 60 -24 75 -27 45 -9 129 39 193
109 l55 61 72 -25 c40 -14 106 -38 146 -52 40 -15 98 -29 130 -32 l57 -5 58
52 c69 61 93 105 109 198 23 132 -18 248 -101 285 -45 21 -40 9 -86 204 -26
109 -28 113 -72 149 -70 57 -153 75 -227 48z"/>
<path d="M6045 4171 c-8 -14 10 -22 30 -15 13 5 14 8 3 15 -17 11 -26 11 -33
0z"/>
<path d="M3485 3753 c31 -120 34 -189 11 -274 l-7 -26 78 -7 c43 -3 116 -13
162 -21 47 -8 87 -13 89 -10 3 2 -7 29 -22 59 -20 41 -60 85 -160 180 -74 69
-139 126 -146 126 -8 0 -10 -9 -5 -27z"/>
<path d="M1728 1633 c-4 -725 -2 -863 15 -879 8 -9 369 -10 400 -1 l27 7 0
835 0 835 -219 0 -218 0 -5 -797z"/>
<path d="M5493 2343 l-113 -4 0 -793 0 -793 173 -6 c498 -19 758 2 934 75 168
69 254 204 254 397 0 146 -40 222 -156 297 -84 53 -85 56 -16 104 48 34 64 52
87 103 24 53 28 75 29 152 0 85 -2 96 -37 165 -84 170 -198 244 -438 285 -97
17 -477 26 -717 18z m649 -375 c49 -23 58 -31 67 -65 15 -54 14 -73 -9 -110
-37 -61 -58 -68 -222 -71 l-148 -4 0 142 0 142 128 -4 c111 -3 134 -7 184 -30z
m5 -559 c50 -9 68 -17 88 -40 36 -44 49 -96 36 -144 -26 -92 -50 -101 -288
-112 l-153 -6 0 156 0 157 127 0 c69 0 155 -5 190 -11z"/>
<path d="M328 1728 c-4 -876 -4 -920 5 -950 l7 -28 220 0 220 0 0 260 0 260
330 0 330 0 0 205 0 205 -330 0 -330 0 0 135 0 135 380 0 380 0 0 195 0 195
-605 0 -605 0 -2 -612z"/>
<path d="M8925 2004 c-194 -42 -365 -172 -443 -335 -180 -374 -1 -796 393
-926 154 -50 377 -33 523 41 46 24 202 133 202 142 0 21 -41 91 -95 163 -35
48 -69 100 -75 116 l-12 30 -21 -30 c-79 -110 -178 -164 -280 -151 -54 6 -197
68 -197 85 0 16 49 38 136 60 44 11 127 41 184 66 171 76 295 124 365 141 63
16 65 17 65 49 0 56 -38 183 -76 256 -67 126 -192 231 -334 279 -86 29 -238
36 -335 14z m207 -325 c54 -12 142 -51 153 -68 11 -18 -79 -60 -220 -101 -77
-23 -161 -54 -188 -68 -26 -14 -49 -23 -52 -20 -8 8 25 110 50 154 13 22 42
57 64 77 36 32 48 37 91 37 27 0 73 -5 102 -11z"/>
<path d="M2887 1990 c-237 -52 -405 -219 -467 -464 -90 -355 134 -713 494
-791 94 -21 276 -16 371 9 98 27 201 81 260 137 l55 52 -31 56 c-41 72 -105
167 -140 208 l-28 33 -31 -45 c-65 -94 -172 -146 -272 -131 -52 8 -188 70
-188 86 0 14 70 43 140 60 30 7 127 43 215 80 164 69 277 111 353 130 41 11
42 12 42 53 0 68 -28 177 -62 247 -39 81 -131 174 -215 218 -137 72 -337 97
-496 62z m235 -311 c54 -12 142 -51 153 -68 11 -18 -79 -60 -220 -101 -77 -23
-161 -54 -188 -68 -26 -14 -49 -23 -52 -20 -9 9 26 124 54 173 49 87 122 111
253 84z"/>
<path d="M4440 2001 c-8 -5 -51 -14 -95 -21 -111 -17 -183 -56 -275 -149 -128
-129 -190 -281 -190 -469 0 -111 18 -189 65 -281 79 -155 224 -276 405 -337
45 -16 84 -19 210 -18 142 0 162 2 240 28 98 32 156 63 212 114 58 53 64 67
36 100 -13 15 -42 64 -66 107 -24 44 -56 96 -71 115 l-29 34 -74 -70 c-95 -90
-133 -109 -223 -109 -76 0 -114 14 -174 64 l-34 28 27 18 c16 11 65 29 110 41
44 12 160 56 256 97 172 73 231 94 319 117 l44 12 -7 80 c-7 90 -34 179 -74
247 -63 108 -199 201 -342 236 -80 19 -250 29 -270 16z m159 -312 c49 -8 74
-18 107 -46 24 -19 41 -39 38 -44 -12 -19 -104 -58 -234 -99 -74 -23 -152 -51
-173 -62 -22 -11 -41 -17 -44 -14 -12 12 19 123 45 166 34 56 103 94 192 109
3 0 34 -4 69 -10z"/>
<path d="M7418 1990 c-194 -43 -337 -159 -424 -345 -139 -299 -40 -636 241
-817 107 -69 199 -99 327 -105 224 -12 435 56 536 171 38 43 38 47 12 71 -11
10 -41 55 -66 99 -26 45 -60 99 -77 122 l-31 41 -49 -53 c-55 -61 -164 -120
-237 -130 -64 -9 -125 11 -173 55 l-41 38 27 18 c14 9 57 25 94 34 37 10 147
52 243 93 168 72 255 104 348 128 41 11 42 12 42 53 -1 127 -60 277 -145 366
-138 145 -399 212 -627 161z m251 -301 c59 -13 146 -76 131 -94 -16 -20 -96
-51 -242 -96 -73 -22 -148 -49 -167 -60 -18 -11 -36 -17 -39 -14 -13 13 23
119 58 174 28 43 47 62 67 67 15 3 46 12 68 19 50 17 68 17 124 4z"/>
</g>
</svg>
