<svg width="240" height="240" viewBox="0 0 240 240" fill="none" xmlns="http://www.w3.org/2000/svg">
<rect x="-1.52588e-05" width="240" height="240" rx="35" fill="url(#paint0_linear)"/>
<rect x="-1.52588e-05" width="240" height="240" rx="35" fill="url(#paint1_linear)"/>
<path d="M136.642 34.5226C135.22 35.4781 131.311 42.7881 130.6 45.8219C130.031 48.2824 130.245 51.2207 131.216 53.8007C131.619 54.9235 132.116 55.9985 132.306 56.2135C132.827 56.7868 132.733 57.2168 132.116 57.0018C129.487 56.1896 127.046 53.1557 126.122 49.5008C125.838 48.378 125.743 47.2552 125.814 45.4397C125.909 42.5014 126.501 40.9248 128.112 39.157C129.226 37.9387 129.297 37.5803 128.539 36.6965C127.828 35.8604 126.951 36.0276 126.264 37.1504C125.53 38.3687 124.629 41.8564 124.298 44.7469C124.037 47.0402 124.061 47.6375 124.392 49.238C125.482 54.6129 128.681 58.1962 133.159 59.1279L134.652 59.4384L133.68 60.394C133.135 60.8956 132.235 61.7556 131.666 62.2812C129.889 63.9295 127.709 68.0144 126.785 71.5022C126.24 73.5805 126.24 78.5015 126.809 81.3921C127.354 84.2348 128.444 87.6509 129.605 90.0636C130.268 91.4969 131.027 92.5958 132.33 94.0052C134.415 96.2985 134.604 96.6569 135.126 98.8307C135.315 99.7146 135.671 100.813 135.86 101.267C136.358 102.271 136.215 102.438 135.41 101.793C133.917 100.622 130.529 95.3191 130.008 93.3364C129.439 91.2342 129.084 90.6369 128.16 90.2547C126.643 89.6575 123.468 89.1558 121.099 89.1558C118.943 89.1558 117 89.5142 117 89.8964C117 90.2547 118.706 92.5958 120.27 94.3636C121.17 95.3669 122.734 97.3258 123.753 98.7113C124.771 100.097 126.406 102.08 127.401 103.131C128.397 104.182 129.723 105.687 130.363 106.451C131.003 107.216 132.543 108.601 133.799 109.509C135.054 110.441 136.476 111.587 136.974 112.041C137.779 112.829 137.874 112.877 138.229 112.519C138.443 112.304 138.751 111.516 138.893 110.727L139.177 109.342L139.58 110.656C139.793 111.372 140.243 112.423 140.599 112.997L141.191 114L142.305 113.236C142.921 112.806 143.442 112.447 143.489 112.423C143.774 112.28 141.191 105.257 139.651 102.032C139.201 101.052 138.869 100.24 138.893 100.192C138.94 100.168 139.983 100.551 141.215 101.076C143.94 102.223 146.001 102.629 148.039 102.414C149.744 102.247 153.085 101.196 154.91 100.264L156.094 99.6429L156.592 100.79C156.853 101.411 157.232 102.295 157.398 102.701C157.587 103.131 157.8 103.489 157.871 103.489C158.369 103.489 159.648 102.725 159.648 102.438C159.648 101.817 158.914 99.8102 158.416 99.1413C158.014 98.5441 157.99 98.4246 158.322 97.8274C158.511 97.4691 159.222 96.5135 159.885 95.7252C161.354 94.0291 162.302 92.118 162.823 89.9203C163.534 86.8148 164.103 82.3715 163.984 80.8665L163.866 79.3854L162.492 80.1021C159.601 81.6548 158.393 81.5115 154.578 79.1943C150.266 76.5666 149.342 75.4199 149.057 72.3144L148.915 70.7616H148.039C147.565 70.7616 146.972 70.905 146.735 71.0961C146.309 71.4066 146.285 71.5261 146.57 72.5294C147.02 74.2494 146.925 75.3005 146.143 76.9249C145.314 78.6926 143.513 80.6993 141.547 82.0609C137.969 84.5215 135.126 84.4976 132.661 82.0132C131.548 80.8904 130.576 79.0987 130.363 77.7132C130.245 77.0443 130.079 76.7338 129.818 76.7338C129.605 76.7338 129.297 76.6382 129.107 76.5188C128.657 76.2321 129.013 75.3005 129.581 75.3005C129.913 75.3005 130.031 75.1332 130.031 74.6316C130.031 72.6249 131.264 70.4511 133.064 69.3044C135.291 67.8711 137.495 67.4172 144.721 66.82C147.257 66.605 150.147 66.2706 151.119 66.0795C152.09 65.8883 153.63 65.745 154.531 65.745C155.431 65.745 156.568 65.6256 157.042 65.4822L157.942 65.1956L156.616 63.6189C154.957 61.6123 153.299 60.3223 151.213 59.3668C147.896 57.8379 142.992 56.7629 141.025 57.1451C140.504 57.2407 139.319 57.5512 138.372 57.8618L136.618 58.4112L134.865 56.6435C133.68 55.4729 132.827 54.374 132.33 53.3468C131.666 52.0091 131.595 51.5791 131.595 49.7635C131.572 47.088 132.164 45.1769 134.344 40.877L136.026 37.5565H137.021C138.727 37.5565 139.627 35.8843 138.656 34.4987C138.206 33.8298 137.661 33.8298 136.642 34.5226ZM141.239 86.1937C141.665 86.4087 142.684 87.1731 143.513 87.8898C144.342 88.6064 145.432 89.3947 145.954 89.6575C147.02 90.2069 149.436 90.5414 152.327 90.5653C154.957 90.5892 156.189 90.9714 156.26 91.7836C156.331 92.5003 156.142 92.7391 154.317 94.3397C153.038 95.4386 152.73 95.5819 151.166 95.8447C150.218 96.0119 149.034 96.0597 148.56 95.9641C146.048 95.5102 141.025 91.8075 139.935 89.6336C139.556 88.917 139.272 88.2003 139.272 88.0331C139.272 87.6509 140.172 85.8114 140.362 85.8114C140.433 85.8114 140.812 85.9787 141.239 86.1937Z" fill="white"/>
<path d="M88.8688 57.4394C83.6499 58.5434 79.0267 61.8555 74.7371 67.5917C73.0213 69.8957 72.354 71.0478 72.0919 72.2718C71.925 73.0398 71.9489 73.0878 72.4732 72.9198C72.783 72.8238 73.7362 72.3438 74.5941 71.8158C76.4768 70.6877 78.0258 70.1357 82.2677 69.0557C88.2254 67.5677 91.1089 67.4717 98.9017 68.6237C107.743 69.8957 115.679 73.7838 119.658 78.728C120.207 79.424 120.778 80 120.898 80C121.16 80 120.898 78.704 120.35 77.4799C119.968 76.5679 117.943 73.5198 115.154 69.6797C113.319 67.1596 109.626 63.5356 107.242 61.9515C104.716 60.2955 102.953 59.3834 100.284 58.4474C96.0658 56.9354 92.6103 56.6234 88.8688 57.4394Z" fill="white"/>
<path d="M147.824 68.2184C147.573 68.3527 146.611 68.5407 145.672 68.6482L144 68.8362L144.55 69.481C145.076 70.1257 145.076 70.1257 146.863 69.7227C148.695 69.3198 150 68.7019 150 68.2452C150 67.9229 148.466 67.9229 147.824 68.2184Z" fill="white"/>
<path d="M158 68.4077C158 68.6931 158.163 68.8154 158.535 68.8154C158.815 68.8154 159.28 68.8766 159.583 68.9377C160.071 69.06 160.095 69.0396 159.839 68.53C159.606 68.1223 159.397 68 158.768 68C158.163 68 158 68.0815 158 68.4077Z" fill="white"/>
<path d="M133.078 72.1739C132.835 72.4761 133.2 73 133.638 73C133.857 73 134.295 72.859 134.611 72.6776C135.049 72.4157 135.098 72.3149 134.854 72.1739C134.416 71.9321 133.248 71.9522 133.078 72.1739Z" fill="white"/>
<path d="M88.0572 72.2348C87.7983 72.3305 86.9512 72.498 86.1747 72.5937C83.3745 72.9527 78.1977 75.3215 75.6094 77.4511C73.2327 79.3892 70.2914 84.0073 69.0207 87.8118C66.6676 94.8226 68.456 104.848 73.6328 113.75C74.3857 115.089 75.727 116.812 77.1859 118.392C78.4801 119.779 79.6096 120.952 79.7037 121C79.7978 121.024 79.9861 119.851 80.1273 118.368C80.8803 110.974 84.1746 103.987 89.7985 97.8375C95.6341 91.4249 104.646 86.0172 111.306 84.9165C113.706 84.5337 116.741 84.6294 119.047 85.1798C120.177 85.443 121.4 85.6344 121.73 85.5865C122.271 85.5147 122.13 85.3472 120.083 83.4809C114.341 78.2886 106.905 74.3644 100.081 72.9766C95.8224 72.1152 89.3279 71.7084 88.0572 72.2348Z" fill="white"/>
<path d="M106.611 93.1306C105.436 93.7186 103.685 94.777 102.726 95.4591L101 96.7292L101.623 97.6935C103.518 100.681 110.903 109.759 112.389 110.935C112.989 111.429 114.379 112.888 115.482 114.181C116.585 115.498 118.096 117.145 118.887 117.874C120.925 119.779 126.536 124.224 128.19 125.259C128.982 125.753 129.869 126.365 130.181 126.623C130.708 127.117 130.732 127.117 131.547 126.67C132.458 126.2 133.777 124.436 134.52 122.696L135 121.637L133.034 120.344C128.166 117.168 120.685 110.441 117.281 106.208C114.14 102.303 110.975 96.9879 110.159 94.2125C109.776 92.9659 109.224 91.9545 108.937 92.0016C108.841 92.0251 107.81 92.5425 106.611 93.1306Z" fill="white"/>
<path d="M93.5191 102.734C92.6491 103.684 91.5616 105.062 91.1266 105.775C90.6916 106.487 90.0391 107.437 89.6767 107.913L89 108.768L90.5708 110.763C91.4408 111.856 93.3499 114.35 94.8482 116.322C100.237 123.353 103.016 126.394 107.342 129.933C108.865 131.192 110.991 132.997 112.055 133.971C114.326 136.014 116.429 137.463 117.758 137.843C118.652 138.128 118.749 138.081 120.078 137.226C120.851 136.727 122.325 135.682 123.364 134.921C125.588 133.259 125.588 133.045 123.099 131.762C121.31 130.836 116.67 127.581 113.215 124.826C106.182 119.243 98.4007 109.029 96.2499 102.592C95.9357 101.713 95.5732 101 95.404 101C95.259 101 94.4132 101.784 93.5191 102.734Z" fill="white"/>
<path d="M159.19 103.716C158.705 104.111 158.011 104.58 157.619 104.728C156.971 105.025 156.925 105.123 157.064 105.938C157.318 107.469 158.589 109.864 159.953 111.469L161.27 113L162.125 112.58C163.003 112.111 163.073 111.889 162.957 109.79C162.888 108.358 160.877 103 160.438 103C160.23 103 159.675 103.321 159.19 103.716Z" fill="white"/>
<path d="M163.283 113.253C162.93 113.544 162.93 113.69 163.158 114.49C163.304 114.999 163.74 116.211 164.114 117.206C164.779 118.855 164.883 119 165.444 119C166.026 119 166.067 118.952 165.943 118.321C165.756 117.375 164.073 113.084 163.844 113.011C163.74 112.962 163.491 113.084 163.283 113.253Z" fill="white"/>
<path d="M143.162 113.567C142.8 113.914 142.139 114.36 141.734 114.558C140.902 114.979 140.859 115.078 141.201 116.54C141.819 119.19 142.672 121.048 143.759 122.114C144.74 123.08 144.868 123.129 145.444 122.857C145.763 122.708 146.254 122.312 146.531 121.965L147 121.37L146.616 119.265C146.211 117.01 145.273 114.434 144.548 113.493C143.994 112.824 143.994 112.824 143.162 113.567Z" fill="white"/>
<path d="M85.3933 120.426C85.1157 121.424 85 122.802 85 125.131V128.411L85.8791 129.267C86.3417 129.742 87.429 130.55 88.285 131.096C91.1535 132.926 95.9884 138.725 97.1451 141.72L97.5152 142.694L99.0652 142.86C101.055 143.05 103.437 143.05 105.427 142.836L107 142.694L105.89 141.506C105.288 140.864 103.067 138.915 100.962 137.18C98.857 135.446 96.5668 133.378 95.8496 132.617C93.0505 129.671 89.3028 124.514 88.0536 121.947C87.3365 120.497 86.2723 119 85.9485 119C85.8559 119 85.6015 119.642 85.3933 120.426Z" fill="white"/>
<path d="M164.12 120.294C163.613 120.461 162.599 121.177 161.9 121.87L160.621 123.111L159.487 122.8C158.376 122.49 158.352 122.49 157.821 123.135C157.363 123.708 157.17 123.779 156.446 123.636C155.264 123.421 154.829 123.708 153.14 125.76C151.861 127.288 151.668 127.67 151.668 128.53C151.668 129.055 151.837 129.819 152.054 130.224C152.464 131.036 152.368 131.609 151.644 132.253C151.137 132.683 151.137 132.683 150.679 132.158C150.437 131.848 149.858 130.391 149.4 128.935C148.917 127.455 148.266 125.856 147.928 125.355L147.3 124.471L146.601 124.997C146.022 125.402 145.925 125.617 146.046 126.119C146.263 127.097 148.217 132.015 149.038 133.71C149.738 135.142 149.81 135.213 150.196 134.879C150.437 134.664 150.679 134.497 150.751 134.497C151.065 134.497 151.644 136.431 152.03 138.794C152.609 142.255 152.826 142.709 154.25 143.33C154.878 143.616 155.698 143.903 156.06 143.974C157.146 144.189 159.173 143.043 160.717 141.372L162.044 139.916L163.782 140.513C164.747 140.847 166.34 141.42 167.305 141.754C168.27 142.112 169.67 142.446 170.442 142.518L171.817 142.637L173.217 141.396C174.882 139.94 175.461 138.89 175.847 136.67C176.402 133.519 175.413 130.75 173.41 129.866C172.324 129.365 172.445 129.651 171.335 124.997C170.707 122.395 170.659 122.299 169.597 121.44C167.908 120.079 165.905 119.65 164.12 120.294Z" fill="white"/>
<path d="M145.046 124.319C144.858 124.861 145.281 125.171 145.752 124.9C146.057 124.707 146.081 124.59 145.822 124.319C145.422 123.894 145.21 123.894 145.046 124.319Z" fill="white"/>
<path d="M84.0649 134.59C84.8024 137.214 84.8738 138.723 84.3266 140.581L84.16 141.15L86.0157 141.303C87.0388 141.369 88.7755 141.587 89.8699 141.762C90.9881 141.937 91.9398 142.046 91.9873 141.981C92.0587 141.937 91.8208 141.347 91.4639 140.691C90.9881 139.794 90.0365 138.832 87.6573 136.755C85.8968 135.246 84.3503 134 84.1838 134C83.9935 134 83.9459 134.197 84.0649 134.59Z" fill="white"/>
<path d="M62.0316 171.678C61.9595 185.03 61.9955 187.571 62.302 187.866C62.4462 188.032 68.9544 188.05 69.5132 187.885L70 187.756V172.378V157H66.0518H62.1217L62.0316 171.678Z" fill="white"/>
<path d="M130.076 158.055L128 158.13V172.947V187.764L131.178 187.876C140.325 188.231 145.101 187.839 148.334 186.475C151.42 185.186 153 182.663 153 179.057C153 176.329 152.265 174.909 150.134 173.508C148.591 172.517 148.573 172.461 149.841 171.564C150.722 170.929 151.016 170.593 151.439 169.64C151.879 168.65 151.953 168.238 151.971 166.8C151.971 165.212 151.935 165.006 151.292 163.717C149.749 160.54 147.655 159.158 143.246 158.392C141.464 158.074 134.484 157.906 130.076 158.055ZM141.997 165.062C142.897 165.492 143.062 165.641 143.228 166.277C143.503 167.286 143.485 167.641 143.062 168.332C142.383 169.472 141.997 169.602 138.985 169.659L136.266 169.733V167.08V164.427L138.617 164.501C140.656 164.558 141.079 164.632 141.997 165.062ZM142.089 175.507C143.007 175.675 143.338 175.825 143.705 176.254C144.367 177.076 144.605 178.048 144.367 178.945C143.889 180.664 143.448 180.832 139.076 181.038L136.266 181.15V178.235V175.301H138.599C139.866 175.301 141.446 175.395 142.089 175.507Z" fill="white"/>
<path d="M36.0464 170.162C35.9739 186.14 35.9739 186.942 36.1369 187.489L36.2637 188H40.2487H44.2337V183.258V178.516H50.2112H56.1886V174.777V171.038H50.2112H44.2337V168.575V166.113H51.1168H58V162.557V159H47.0413H36.0826L36.0464 170.162Z" fill="white"/>
<path d="M193.381 164.238C189.834 165.012 186.708 167.408 185.282 170.411C181.992 177.303 185.264 185.079 192.467 187.474C195.282 188.396 199.359 188.082 202.028 186.719C202.869 186.277 205.72 184.268 205.72 184.102C205.72 183.715 204.971 182.425 203.984 181.099C203.344 180.214 202.722 179.256 202.613 178.961L202.393 178.408L202.009 178.961C200.565 180.988 198.755 181.983 196.891 181.744C195.904 181.633 193.289 180.491 193.289 180.177C193.289 179.883 194.185 179.477 195.776 179.072C196.58 178.869 198.097 178.316 199.139 177.856C202.265 176.455 204.532 175.571 205.812 175.257C206.963 174.963 207 174.944 207 174.354C207 173.323 206.305 170.982 205.611 169.637C204.386 167.315 202.101 165.381 199.505 164.496C197.933 163.962 195.154 163.833 193.381 164.238ZM197.165 170.227C198.152 170.448 199.761 171.167 199.962 171.48C200.163 171.812 198.518 172.586 195.94 173.341C194.532 173.765 192.997 174.336 192.503 174.594C192.028 174.852 191.608 175.018 191.553 174.963C191.406 174.815 192.01 172.936 192.467 172.125C192.704 171.719 193.235 171.075 193.637 170.706C194.295 170.116 194.514 170.024 195.3 170.024C195.794 170.024 196.635 170.116 197.165 170.227Z" fill="white"/>
<path d="M82.8886 165.28C78.5621 166.212 75.4952 169.204 74.3634 173.593C72.7204 179.953 76.8096 186.367 83.3815 187.764C85.0975 188.141 88.42 188.051 90.1542 187.603C91.9433 187.12 93.8236 186.152 94.9006 185.149L95.9047 184.217L95.3388 183.214C94.5903 181.924 93.422 180.222 92.783 179.487L92.2719 178.896L91.706 179.702C90.5194 181.387 88.566 182.318 86.7405 182.049C85.7912 181.906 83.3085 180.795 83.3085 180.509C83.3085 180.258 84.5864 179.738 85.8642 179.434C86.4119 179.308 88.1827 178.663 89.7891 178C92.783 176.764 94.8459 176.012 96.2333 175.671C96.9817 175.474 97 175.456 97 174.722C97 173.504 96.4889 171.551 95.8682 170.297C95.1562 168.846 93.4767 167.179 91.9433 166.391C89.4423 165.101 85.7912 164.653 82.8886 165.28ZM87.1786 170.852C88.1644 171.067 89.7709 171.766 89.9717 172.07C90.1725 172.393 88.5295 173.145 85.9555 173.88C84.5499 174.292 83.0164 174.847 82.5235 175.098C82.0489 175.349 81.629 175.51 81.5742 175.456C81.4099 175.295 82.0489 173.235 82.56 172.357C83.4545 170.798 84.7872 170.368 87.1786 170.852Z" fill="white"/>
<path d="M111.279 165.106C111.132 165.195 110.343 165.357 109.536 165.483C107.498 165.788 106.176 166.488 104.488 168.158C102.138 170.474 101 173.203 101 176.578C101 178.571 101.33 179.971 102.193 181.623C103.643 184.406 106.305 186.579 109.627 187.674C110.453 187.961 111.169 188.015 113.482 187.997C116.089 187.997 116.456 187.961 117.887 187.494C119.686 186.92 120.751 186.363 121.779 185.447C122.844 184.496 122.954 184.245 122.44 183.652C122.201 183.383 121.669 182.503 121.228 181.731C120.788 180.941 120.2 180.007 119.925 179.666L119.393 179.056L118.034 180.313C116.291 181.928 115.593 182.27 113.941 182.27C112.546 182.27 111.848 182.018 110.747 181.121L110.123 180.618L110.619 180.295C110.912 180.097 111.812 179.774 112.638 179.559C113.445 179.343 115.575 178.553 117.337 177.817C120.494 176.506 121.577 176.129 123.192 175.716L124 175.501L123.872 174.065C123.743 172.449 123.247 170.851 122.513 169.63C121.357 167.691 118.86 166.021 116.235 165.393C114.767 165.052 111.646 164.872 111.279 165.106ZM114.198 170.707C115.097 170.851 115.556 171.03 116.162 171.533C116.603 171.874 116.915 172.233 116.86 172.323C116.639 172.664 114.951 173.364 112.564 174.1C111.206 174.513 109.774 175.016 109.389 175.214C108.985 175.411 108.636 175.519 108.581 175.465C108.361 175.25 108.93 173.257 109.407 172.485C110.031 171.479 111.298 170.797 112.931 170.528C112.986 170.528 113.555 170.599 114.198 170.707Z" fill="white"/>
<path d="M165.89 165.303C162.344 166.073 159.73 168.149 158.14 171.477C155.599 176.827 157.409 182.858 162.545 186.097C164.5 187.331 166.182 187.868 168.522 187.976C172.616 188.19 176.472 186.974 178.318 184.916C179.013 184.146 179.013 184.075 178.538 183.645C178.337 183.466 177.788 182.661 177.331 181.874C176.856 181.068 176.235 180.102 175.924 179.691L175.357 178.957L174.462 179.905C173.457 180.997 171.464 182.053 170.13 182.232C168.96 182.393 167.845 182.035 166.968 181.247L166.219 180.567L166.712 180.245C166.968 180.084 167.754 179.798 168.43 179.637C169.106 179.458 171.117 178.706 172.872 177.973C175.942 176.684 177.532 176.112 179.232 175.682C179.982 175.485 180 175.467 180 174.734C179.982 172.461 178.903 169.777 177.35 168.184C174.827 165.59 170.057 164.391 165.89 165.303ZM170.477 170.69C171.556 170.922 173.146 172.05 172.872 172.372C172.579 172.73 171.117 173.284 168.448 174.09C167.114 174.483 165.743 174.966 165.396 175.163C165.067 175.36 164.738 175.467 164.683 175.414C164.446 175.181 165.104 173.284 165.743 172.3C166.255 171.531 166.602 171.191 166.968 171.101C167.242 171.048 167.809 170.887 168.211 170.761C169.125 170.457 169.454 170.457 170.477 170.69Z" fill="white"/>
<defs>
<linearGradient id="paint0_linear" x1="240" y1="1.18759e-05" x2="-165.131" y2="357.161" gradientUnits="userSpaceOnUse">
<stop stop-color="#5ACFA4"/>
<stop offset="1" stop-color="#03668C"/>
</linearGradient>
<linearGradient id="paint1_linear" x1="120" y1="0" x2="120" y2="240" gradientUnits="userSpaceOnUse">
<stop stop-color="#FE725A"/>
<stop offset="1" stop-color="#E66583"/>
</linearGradient>
</defs>
</svg>
