<svg width="149" height="151" viewBox="0 0 149 151" fill="none" xmlns="http://www.w3.org/2000/svg">
<path d="M94.2208 0.717248C92.2694 2.02887 86.9032 12.0628 85.9275 16.2271C85.1469 19.6046 85.4396 23.6378 86.7731 27.1792C87.326 28.7203 88.0089 30.1959 88.2691 30.491C88.9846 31.278 88.8545 31.8682 88.0089 31.5731C84.3989 30.4582 81.0491 26.2938 79.7807 21.2769C79.3904 19.7357 79.2603 18.1946 79.3579 15.7025C79.488 11.6693 80.301 9.5051 82.5126 7.0786C84.0412 5.40629 84.1387 4.91443 83.098 3.70118C82.1223 2.55351 80.919 2.78305 79.9758 4.3242C78.9676 5.99651 77.7318 10.7839 77.2764 14.7516C76.9187 17.8995 76.9512 18.7192 77.4065 20.9162C78.9026 28.294 83.2931 33.2126 89.4399 34.4914L91.4889 34.9177L90.1554 36.2293C89.4074 36.9179 88.1715 38.0984 87.391 38.8198C84.9518 41.0823 81.9597 46.6895 80.6913 51.4769C79.9433 54.3297 79.9433 61.0845 80.7238 65.0522C81.4719 68.9542 82.9679 73.6433 84.5615 76.9551C85.4722 78.9225 86.5129 80.4309 88.3016 82.3655C91.1636 85.5134 91.4238 86.0053 92.1393 88.9892C92.3995 90.2025 92.8873 91.7108 93.1475 92.3338C93.8305 93.711 93.6354 93.9406 92.5296 93.0552C90.4807 91.4485 85.8299 84.169 85.1144 81.4474C84.3339 78.5618 83.846 77.7421 82.5776 77.2174C80.4962 76.3977 76.1381 75.7091 72.8859 75.7091C69.9263 75.7091 67.2594 76.2009 67.2594 76.7256C67.2594 77.2174 69.6011 80.4309 71.7476 82.8574C72.9834 84.2346 75.1299 86.9234 76.5284 88.8253C77.9269 90.7271 80.171 93.4487 81.5369 94.8915C82.9029 96.3343 84.7241 98.4001 85.6023 99.4494C86.4804 100.499 88.5943 102.401 90.318 103.647C92.0418 104.925 93.9931 106.499 94.6761 107.122C95.7819 108.204 95.912 108.27 96.3998 107.778C96.6925 107.483 97.1153 106.401 97.3104 105.319L97.7007 103.417L98.2536 105.22C98.5463 106.204 99.1642 107.647 99.6521 108.434L100.465 109.811L101.994 108.762C102.839 108.172 103.555 107.68 103.62 107.647C104.01 107.45 100.465 97.8098 98.3512 93.3831C97.7332 92.0387 97.2779 90.9238 97.3104 90.8583C97.3755 90.8255 98.8065 91.3501 100.498 92.0715C104.238 93.6455 107.067 94.2029 109.864 93.9078C112.206 93.6782 116.792 92.2355 119.296 90.9566L120.922 90.1041L121.605 91.678C121.963 92.5306 122.483 93.7438 122.711 94.3013C122.971 94.8915 123.264 95.3833 123.361 95.3833C124.044 95.3833 125.8 94.3341 125.8 93.9406C125.8 93.088 124.792 90.3336 124.109 89.4155C123.556 88.5957 123.524 88.4318 123.979 87.612C124.239 87.1201 125.215 85.8085 126.126 84.7264C128.142 82.3983 129.443 79.7751 130.158 76.7584C131.134 72.4956 131.915 66.3966 131.752 64.3308L131.589 62.2978L129.703 63.2815C125.735 65.4129 124.077 65.2161 118.84 62.0354C112.921 58.4285 111.653 56.8545 111.263 52.5918L111.068 50.4604H109.864C109.214 50.4604 108.401 50.6571 108.075 50.9195C107.49 51.3457 107.458 51.5097 107.848 52.8869C108.466 55.2478 108.336 56.6906 107.262 58.9203C106.124 61.3468 103.652 64.1012 100.953 65.9703C96.042 69.3477 92.1393 69.3149 88.757 65.9047C87.2284 64.3636 85.895 61.9043 85.6023 60.0024C85.4396 59.0843 85.212 58.658 84.8542 58.658C84.5615 58.658 84.1387 58.5269 83.8785 58.3629C83.2606 57.9694 83.7485 56.6906 84.529 56.6906C84.9843 56.6906 85.1469 56.4611 85.1469 55.7725C85.1469 53.0181 86.8381 50.0341 89.3098 48.4602C92.367 46.4928 95.3916 45.8697 105.311 45.05C108.791 44.7549 112.759 44.2958 114.092 44.0335C115.426 43.7711 117.54 43.5744 118.775 43.5744C120.011 43.5744 121.572 43.4104 122.223 43.2137L123.459 42.8202L121.637 40.656C119.361 37.9016 117.084 36.131 114.222 34.8193C109.669 32.7208 102.937 31.2452 100.237 31.7698C99.522 31.901 97.8958 32.3273 96.5949 32.7535L94.1883 33.5077L91.7816 31.0812C90.1554 29.4745 88.9846 27.9661 88.3016 26.5561C87.391 24.7199 87.2934 24.1296 87.2934 21.6376C87.2609 17.965 88.074 15.3418 91.0661 9.43951L93.3752 4.88164H94.7411C97.0828 4.88164 98.3186 2.58631 96.9852 0.684458C96.3673 -0.233676 95.6193 -0.233676 94.2208 0.717248ZM100.53 71.643C101.116 71.9382 102.514 72.9875 103.652 73.9712C104.791 74.9549 106.287 76.037 107.002 76.3977C108.466 77.1518 111.783 77.6109 115.751 77.6437C119.361 77.6765 121.052 78.2011 121.15 79.316C121.247 80.2997 120.987 80.6276 118.483 82.8246C116.727 84.333 116.304 84.5297 114.157 84.8904C112.856 85.1199 111.23 85.1855 110.58 85.0543C107.132 84.4313 100.237 79.3488 98.7414 76.3649C98.2211 75.3812 97.8308 74.3974 97.8308 74.1679C97.8308 73.6433 99.0667 71.1184 99.3268 71.1184C99.4244 71.1184 99.9448 71.3479 100.53 71.643Z" fill="url(#paint0_linear)"/>
<path d="M94.2208 0.717248C92.2694 2.02887 86.9032 12.0628 85.9275 16.2271C85.1469 19.6046 85.4396 23.6378 86.7731 27.1792C87.326 28.7203 88.0089 30.1959 88.2691 30.491C88.9846 31.278 88.8545 31.8682 88.0089 31.5731C84.3989 30.4582 81.0491 26.2938 79.7807 21.2769C79.3904 19.7357 79.2603 18.1946 79.3579 15.7025C79.488 11.6693 80.301 9.5051 82.5126 7.0786C84.0412 5.40629 84.1387 4.91443 83.098 3.70118C82.1223 2.55351 80.919 2.78305 79.9758 4.3242C78.9676 5.99651 77.7318 10.7839 77.2764 14.7516C76.9187 17.8995 76.9512 18.7192 77.4065 20.9162C78.9026 28.294 83.2931 33.2126 89.4399 34.4914L91.4889 34.9177L90.1554 36.2293C89.4074 36.9179 88.1715 38.0984 87.391 38.8198C84.9518 41.0823 81.9597 46.6895 80.6913 51.4769C79.9433 54.3297 79.9433 61.0845 80.7238 65.0522C81.4719 68.9542 82.9679 73.6433 84.5615 76.9551C85.4722 78.9225 86.5129 80.4309 88.3016 82.3655C91.1636 85.5134 91.4238 86.0053 92.1393 88.9892C92.3995 90.2025 92.8873 91.7108 93.1475 92.3338C93.8305 93.711 93.6354 93.9406 92.5296 93.0552C90.4807 91.4485 85.8299 84.169 85.1144 81.4474C84.3339 78.5618 83.846 77.7421 82.5776 77.2174C80.4962 76.3977 76.1381 75.7091 72.8859 75.7091C69.9263 75.7091 67.2594 76.2009 67.2594 76.7256C67.2594 77.2174 69.6011 80.4309 71.7476 82.8574C72.9834 84.2346 75.1299 86.9234 76.5284 88.8253C77.9269 90.7271 80.171 93.4487 81.5369 94.8915C82.9029 96.3343 84.7241 98.4001 85.6023 99.4494C86.4804 100.499 88.5943 102.401 90.318 103.647C92.0418 104.925 93.9931 106.499 94.6761 107.122C95.7819 108.204 95.912 108.27 96.3998 107.778C96.6925 107.483 97.1153 106.401 97.3104 105.319L97.7007 103.417L98.2536 105.22C98.5463 106.204 99.1642 107.647 99.6521 108.434L100.465 109.811L101.994 108.762C102.839 108.172 103.555 107.68 103.62 107.647C104.01 107.45 100.465 97.8098 98.3512 93.3831C97.7332 92.0387 97.2779 90.9238 97.3104 90.8583C97.3755 90.8255 98.8065 91.3501 100.498 92.0715C104.238 93.6455 107.067 94.2029 109.864 93.9078C112.206 93.6782 116.792 92.2355 119.296 90.9566L120.922 90.1041L121.605 91.678C121.963 92.5306 122.483 93.7438 122.711 94.3013C122.971 94.8915 123.264 95.3833 123.361 95.3833C124.044 95.3833 125.8 94.3341 125.8 93.9406C125.8 93.088 124.792 90.3336 124.109 89.4155C123.556 88.5957 123.524 88.4318 123.979 87.612C124.239 87.1201 125.215 85.8085 126.126 84.7264C128.142 82.3983 129.443 79.7751 130.158 76.7584C131.134 72.4956 131.915 66.3966 131.752 64.3308L131.589 62.2978L129.703 63.2815C125.735 65.4129 124.077 65.2161 118.84 62.0354C112.921 58.4285 111.653 56.8545 111.263 52.5918L111.068 50.4604H109.864C109.214 50.4604 108.401 50.6571 108.075 50.9195C107.49 51.3457 107.458 51.5097 107.848 52.8869C108.466 55.2478 108.336 56.6906 107.262 58.9203C106.124 61.3468 103.652 64.1012 100.953 65.9703C96.042 69.3477 92.1393 69.3149 88.757 65.9047C87.2284 64.3636 85.895 61.9043 85.6023 60.0024C85.4396 59.0843 85.212 58.658 84.8542 58.658C84.5615 58.658 84.1387 58.5269 83.8785 58.3629C83.2606 57.9694 83.7485 56.6906 84.529 56.6906C84.9843 56.6906 85.1469 56.4611 85.1469 55.7725C85.1469 53.0181 86.8381 50.0341 89.3098 48.4602C92.367 46.4928 95.3916 45.8697 105.311 45.05C108.791 44.7549 112.759 44.2958 114.092 44.0335C115.426 43.7711 117.54 43.5744 118.775 43.5744C120.011 43.5744 121.572 43.4104 122.223 43.2137L123.459 42.8202L121.637 40.656C119.361 37.9016 117.084 36.131 114.222 34.8193C109.669 32.7208 102.937 31.2452 100.237 31.7698C99.522 31.901 97.8958 32.3273 96.5949 32.7535L94.1883 33.5077L91.7816 31.0812C90.1554 29.4745 88.9846 27.9661 88.3016 26.5561C87.391 24.7199 87.2934 24.1296 87.2934 21.6376C87.2609 17.965 88.074 15.3418 91.0661 9.43951L93.3752 4.88164H94.7411C97.0828 4.88164 98.3186 2.58631 96.9852 0.684458C96.3673 -0.233676 95.6193 -0.233676 94.2208 0.717248ZM100.53 71.643C101.116 71.9382 102.514 72.9875 103.652 73.9712C104.791 74.9549 106.287 76.037 107.002 76.3977C108.466 77.1518 111.783 77.6109 115.751 77.6437C119.361 77.6765 121.052 78.2011 121.15 79.316C121.247 80.2997 120.987 80.6276 118.483 82.8246C116.727 84.333 116.304 84.5297 114.157 84.8904C112.856 85.1199 111.23 85.1855 110.58 85.0543C107.132 84.4313 100.237 79.3488 98.7414 76.3649C98.2211 75.3812 97.8308 74.3974 97.8308 74.1679C97.8308 73.6433 99.0667 71.1184 99.3268 71.1184C99.4244 71.1184 99.9448 71.3479 100.53 71.643Z" fill="url(#paint1_linear)"/>
<path d="M28.6454 32.1739C21.4817 33.6893 15.1357 38.2356 9.24762 46.1093C6.89241 49.2719 5.97649 50.8533 5.61667 52.5334C5.38769 53.5876 5.4204 53.6535 6.14005 53.4229C6.5653 53.2911 7.87375 52.6323 9.05135 51.9075C11.6355 50.3591 13.7618 49.6014 19.5844 48.1189C27.7622 46.0763 31.7203 45.9446 42.4169 47.5259C54.5528 49.2719 65.4457 54.6089 70.9084 61.3954C71.6608 62.3508 72.4459 63.1415 72.6094 63.1415C72.9692 63.1415 72.6094 61.3625 71.8571 59.6823C71.3337 58.4304 68.5532 54.2465 64.726 48.9754C62.2072 45.5163 57.137 40.5417 53.8658 38.3674C50.3984 36.0942 47.9778 34.8423 44.3141 33.5575C38.5242 31.482 33.7811 31.0538 28.6454 32.1739Z" fill="url(#paint2_linear)"/>
<path d="M28.6454 32.1739C21.4817 33.6893 15.1357 38.2356 9.24762 46.1093C6.89241 49.2719 5.97649 50.8533 5.61667 52.5334C5.38769 53.5876 5.4204 53.6535 6.14005 53.4229C6.5653 53.2911 7.87375 52.6323 9.05135 51.9075C11.6355 50.3591 13.7618 49.6014 19.5844 48.1189C27.7622 46.0763 31.7203 45.9446 42.4169 47.5259C54.5528 49.2719 65.4457 54.6089 70.9084 61.3954C71.6608 62.3508 72.4459 63.1415 72.6094 63.1415C72.9692 63.1415 72.6094 61.3625 71.8571 59.6823C71.3337 58.4304 68.5532 54.2465 64.726 48.9754C62.2072 45.5163 57.137 40.5417 53.8658 38.3674C50.3984 36.0942 47.9778 34.8423 44.3141 33.5575C38.5242 31.482 33.7811 31.0538 28.6454 32.1739Z" fill="url(#paint3_linear)"/>
<path d="M109.57 46.9695C109.225 47.1539 107.904 47.412 106.615 47.5595L104.321 47.8176L105.075 48.7026C105.798 49.5876 105.798 49.5876 108.25 49.0344C110.765 48.4813 112.557 47.6332 112.557 47.0064C112.557 46.5639 110.45 46.5639 109.57 46.9695Z" fill="url(#paint4_linear)"/>
<path d="M109.57 46.9695C109.225 47.1539 107.904 47.412 106.615 47.5595L104.321 47.8176L105.075 48.7026C105.798 49.5876 105.798 49.5876 108.25 49.0344C110.765 48.4813 112.557 47.6332 112.557 47.0064C112.557 46.5639 110.45 46.5639 109.57 46.9695Z" fill="url(#paint5_linear)"/>
<path d="M123.538 47.2295C123.538 47.6212 123.761 47.7891 124.272 47.7891C124.656 47.7891 125.295 47.873 125.71 47.957C126.381 48.1249 126.413 48.0969 126.062 47.3974C125.742 46.8377 125.455 46.6698 124.592 46.6698C123.761 46.6698 123.538 46.7818 123.538 47.2295Z" fill="url(#paint6_linear)"/>
<path d="M123.538 47.2295C123.538 47.6212 123.761 47.7891 124.272 47.7891C124.656 47.7891 125.295 47.873 125.71 47.957C126.381 48.1249 126.413 48.0969 126.062 47.3974C125.742 46.8377 125.455 46.6698 124.592 46.6698C123.761 46.6698 123.538 46.7818 123.538 47.2295Z" fill="url(#paint7_linear)"/>
<path d="M89.3287 52.399C88.9947 52.8139 89.4957 53.533 90.0969 53.533C90.3975 53.533 90.9987 53.3394 91.433 53.0904C92.0342 52.7309 92.101 52.5926 91.767 52.399C91.1658 52.0671 89.5625 52.0947 89.3287 52.399Z" fill="url(#paint8_linear)"/>
<path d="M89.3287 52.399C88.9947 52.8139 89.4957 53.533 90.0969 53.533C90.3975 53.533 90.9987 53.3394 91.433 53.0904C92.0342 52.7309 92.101 52.5926 91.767 52.399C91.1658 52.0671 89.5625 52.0947 89.3287 52.399Z" fill="url(#paint9_linear)"/>
<path d="M27.5313 52.4827C27.176 52.6141 26.0132 52.844 24.9474 52.9754C21.1037 53.4681 13.9978 56.7196 10.4449 59.6428C7.18266 62.3032 3.14523 68.6421 1.40106 73.8643C-1.82888 83.4877 0.625877 97.2494 7.73175 109.467C8.76534 111.307 10.6064 113.672 12.609 115.839C14.3854 117.744 15.9358 119.354 16.065 119.419C16.1942 119.452 16.4526 117.843 16.6464 115.806C17.68 105.658 22.2019 96.067 29.9215 87.6261C37.9317 78.8238 50.3024 71.401 59.4432 69.8902C62.7377 69.3647 66.9043 69.4961 70.0697 70.2515C71.62 70.6128 73.2996 70.8755 73.7518 70.8098C74.4947 70.7113 74.3009 70.4814 71.4908 67.9195C63.6098 60.7923 53.4032 55.4059 44.0363 53.5009C38.1901 52.3185 29.2755 51.7602 27.5313 52.4827Z" fill="url(#paint10_linear)"/>
<path d="M27.5313 52.4827C27.176 52.6141 26.0132 52.844 24.9474 52.9754C21.1037 53.4681 13.9978 56.7196 10.4449 59.6428C7.18266 62.3032 3.14523 68.6421 1.40106 73.8643C-1.82888 83.4877 0.625877 97.2494 7.73175 109.467C8.76534 111.307 10.6064 113.672 12.609 115.839C14.3854 117.744 15.9358 119.354 16.065 119.419C16.1942 119.452 16.4526 117.843 16.6464 115.806C17.68 105.658 22.2019 96.067 29.9215 87.6261C37.9317 78.8238 50.3024 71.401 59.4432 69.8902C62.7377 69.3647 66.9043 69.4961 70.0697 70.2515C71.62 70.6128 73.2996 70.8755 73.7518 70.8098C74.4947 70.7113 74.3009 70.4814 71.4908 67.9195C63.6098 60.7923 53.4032 55.4059 44.0363 53.5009C38.1901 52.3185 29.2755 51.7602 27.5313 52.4827Z" fill="url(#paint11_linear)"/>
<path d="M52.9987 81.1651C51.3859 81.9722 48.9833 83.425 47.6668 84.3613L45.2971 86.1046L46.1529 87.4283C48.753 91.5285 58.89 103.99 60.9305 105.605C61.7534 106.283 63.6623 108.284 65.1762 110.06C66.6902 111.868 68.7637 114.128 69.8498 115.129C72.6474 117.744 80.3489 123.846 82.6198 125.266C83.7059 125.944 84.9237 126.784 85.3515 127.139C86.0756 127.817 86.1085 127.817 87.2276 127.203C88.4782 126.558 90.2884 124.136 91.3087 121.747L91.9669 120.294L89.2681 118.519C82.5869 114.16 72.3182 104.927 67.6447 99.1155C63.3331 93.7562 58.9887 86.4598 57.8697 82.6502C57.3431 80.9391 56.5861 79.5508 56.1912 79.6154C56.0595 79.6477 54.6443 80.3579 52.9987 81.1651Z" fill="url(#paint12_linear)"/>
<path d="M52.9987 81.1651C51.3859 81.9722 48.9833 83.425 47.6668 84.3613L45.2971 86.1046L46.1529 87.4283C48.753 91.5285 58.89 103.99 60.9305 105.605C61.7534 106.283 63.6623 108.284 65.1762 110.06C66.6902 111.868 68.7637 114.128 69.8498 115.129C72.6474 117.744 80.3489 123.846 82.6198 125.266C83.7059 125.944 84.9237 126.784 85.3515 127.139C86.0756 127.817 86.1085 127.817 87.2276 127.203C88.4782 126.558 90.2884 124.136 91.3087 121.747L91.9669 120.294L89.2681 118.519C82.5869 114.16 72.3182 104.927 67.6447 99.1155C63.3331 93.7562 58.9887 86.4598 57.8697 82.6502C57.3431 80.9391 56.5861 79.5508 56.1912 79.6154C56.0595 79.6477 54.6443 80.3579 52.9987 81.1651Z" fill="url(#paint13_linear)"/>
<path d="M35.0285 94.3472C33.8344 95.6514 32.3417 97.5426 31.7446 98.5208C31.1475 99.499 30.2518 100.803 29.7543 101.455L28.8255 102.629L30.9816 105.368C32.1758 106.868 34.7963 110.292 36.853 112.998C44.2502 122.65 48.065 126.823 54.0027 131.682C56.0925 133.41 59.0116 135.888 60.4711 137.225C63.5892 140.029 66.4752 142.018 68.2996 142.539C69.5269 142.931 69.6596 142.866 71.4841 141.692C72.5455 141.007 74.569 139.572 75.9954 138.529C79.0472 136.246 79.0472 135.953 75.6305 134.192C73.1758 132.921 66.8069 128.453 62.0633 124.671C52.4104 117.009 41.7292 102.988 38.7769 94.1516C38.3457 92.9451 37.8481 91.9669 37.6159 91.9669C37.4169 91.9669 36.2559 93.0429 35.0285 94.3472Z" fill="url(#paint14_linear)"/>
<path d="M35.0285 94.3472C33.8344 95.6514 32.3417 97.5426 31.7446 98.5208C31.1475 99.499 30.2518 100.803 29.7543 101.455L28.8255 102.629L30.9816 105.368C32.1758 106.868 34.7963 110.292 36.853 112.998C44.2502 122.65 48.065 126.823 54.0027 131.682C56.0925 133.41 59.0116 135.888 60.4711 137.225C63.5892 140.029 66.4752 142.018 68.2996 142.539C69.5269 142.931 69.6596 142.866 71.4841 141.692C72.5455 141.007 74.569 139.572 75.9954 138.529C79.0472 136.246 79.0472 135.953 75.6305 134.192C73.1758 132.921 66.8069 128.453 62.0633 124.671C52.4104 117.009 41.7292 102.988 38.7769 94.1516C38.3457 92.9451 37.8481 91.9669 37.6159 91.9669C37.4169 91.9669 36.2559 93.0429 35.0285 94.3472Z" fill="url(#paint15_linear)"/>
<path d="M125.171 95.6949C124.505 96.2372 123.553 96.8812 123.014 97.0845C122.126 97.4912 122.062 97.6268 122.253 98.7453C122.602 100.847 124.346 104.134 126.218 106.337L128.026 108.438L129.2 107.862C130.406 107.218 130.501 106.913 130.342 104.032C130.247 102.067 127.487 94.7121 126.884 94.7121C126.599 94.7121 125.837 95.1527 125.171 95.6949Z" fill="url(#paint16_linear)"/>
<path d="M125.171 95.6949C124.505 96.2372 123.553 96.8812 123.014 97.0845C122.126 97.4912 122.062 97.6268 122.253 98.7453C122.602 100.847 124.346 104.134 126.218 106.337L128.026 108.438L129.2 107.862C130.406 107.218 130.501 106.913 130.342 104.032C130.247 102.067 127.487 94.7121 126.884 94.7121C126.599 94.7121 125.837 95.1527 125.171 95.6949Z" fill="url(#paint17_linear)"/>
<path d="M130.789 108.786C130.305 109.186 130.305 109.385 130.618 110.484C130.818 111.183 131.417 112.847 131.93 114.211C132.843 116.475 132.985 116.674 133.755 116.674C134.554 116.674 134.611 116.608 134.44 115.742C134.183 114.444 131.873 108.553 131.559 108.453C131.417 108.387 131.075 108.553 130.789 108.786Z" fill="url(#paint18_linear)"/>
<path d="M130.789 108.786C130.305 109.186 130.305 109.385 130.618 110.484C130.818 111.183 131.417 112.847 131.93 114.211C132.843 116.475 132.985 116.674 133.755 116.674C134.554 116.674 134.611 116.608 134.44 115.742C134.183 114.444 131.873 108.553 131.559 108.453C131.417 108.387 131.075 108.553 130.789 108.786Z" fill="url(#paint19_linear)"/>
<path d="M103.171 109.217C102.673 109.693 101.766 110.305 101.21 110.577C100.068 111.155 100.01 111.291 100.478 113.297C101.327 116.936 102.497 119.486 103.99 120.948C105.336 122.274 105.512 122.342 106.302 121.968C106.741 121.764 107.414 121.22 107.795 120.744L108.439 119.928L107.912 117.038C107.356 113.944 106.068 110.407 105.073 109.115C104.312 108.197 104.312 108.197 103.171 109.217Z" fill="url(#paint20_linear)"/>
<path d="M103.171 109.217C102.673 109.693 101.766 110.305 101.21 110.577C100.068 111.155 100.01 111.291 100.478 113.297C101.327 116.936 102.497 119.486 103.99 120.948C105.336 122.274 105.512 122.342 106.302 121.968C106.741 121.764 107.414 121.22 107.795 120.744L108.439 119.928L107.912 117.038C107.356 113.944 106.068 110.407 105.073 109.115C104.312 108.197 104.312 108.197 103.171 109.217Z" fill="url(#paint21_linear)"/>
<path d="M23.8747 118.632C23.4936 120.002 23.3349 121.894 23.3349 125.091V129.592L24.5415 130.767C25.1766 131.419 26.669 132.528 27.8439 133.279C31.7814 135.79 38.418 143.75 40.0057 147.86L40.5138 149.198L42.6413 149.426C45.3722 149.687 48.6428 149.687 51.3737 149.393L53.533 149.198L52.0088 147.567C51.1832 146.686 48.1348 144.011 45.2452 141.63C42.3555 139.248 39.2119 136.41 38.2275 135.366C34.3853 131.321 29.2411 124.243 27.5264 120.719C26.542 118.73 25.0813 116.674 24.6368 116.674C24.5098 116.674 24.1605 117.555 23.8747 118.632Z" fill="url(#paint22_linear)"/>
<path d="M23.8747 118.632C23.4936 120.002 23.3349 121.894 23.3349 125.091V129.592L24.5415 130.767C25.1766 131.419 26.669 132.528 27.8439 133.279C31.7814 135.79 38.418 143.75 40.0057 147.86L40.5138 149.198L42.6413 149.426C45.3722 149.687 48.6428 149.687 51.3737 149.393L53.533 149.198L52.0088 147.567C51.1832 146.686 48.1348 144.011 45.2452 141.63C42.3555 139.248 39.2119 136.41 38.2275 135.366C34.3853 131.321 29.2411 124.243 27.5264 120.719C26.542 118.73 25.0813 116.674 24.6368 116.674C24.5098 116.674 24.1605 117.555 23.8747 118.632Z" fill="url(#paint23_linear)"/>
<path d="M131.938 118.451C131.242 118.68 129.851 119.663 128.89 120.613L127.135 122.317L125.578 121.891C124.054 121.465 124.021 121.465 123.293 122.35C122.663 123.136 122.398 123.235 121.405 123.038C119.782 122.743 119.185 123.136 116.867 125.954C115.111 128.051 114.846 128.576 114.846 129.755C114.846 130.476 115.078 131.524 115.376 132.082C115.939 133.196 115.807 133.982 114.813 134.867C114.118 135.456 114.118 135.456 113.488 134.736C113.157 134.31 112.362 132.311 111.733 130.312C111.07 128.281 110.176 126.085 109.712 125.397L108.851 124.185L107.891 124.906C107.096 125.463 106.963 125.758 107.129 126.446C107.427 127.789 110.11 134.539 111.236 136.865C112.196 138.831 112.296 138.93 112.826 138.471C113.157 138.176 113.488 137.947 113.588 137.947C114.018 137.947 114.813 140.601 115.343 143.845C116.138 148.596 116.436 149.218 118.39 150.07C119.252 150.463 120.378 150.857 120.875 150.955C122.365 151.25 125.148 149.677 127.267 147.383L129.089 145.385L131.474 146.204C132.799 146.663 134.985 147.449 136.31 147.908C137.635 148.399 139.556 148.858 140.616 148.956L142.504 149.12L144.425 147.416C146.711 145.417 147.505 143.976 148.035 140.928C148.797 136.603 147.439 132.802 144.69 131.59C143.199 130.902 143.365 131.295 141.841 124.906C140.98 121.334 140.914 121.203 139.457 120.023C137.138 118.156 134.389 117.566 131.938 118.451Z" fill="url(#paint24_linear)"/>
<path d="M131.938 118.451C131.242 118.68 129.851 119.663 128.89 120.613L127.135 122.317L125.578 121.891C124.054 121.465 124.021 121.465 123.293 122.35C122.663 123.136 122.398 123.235 121.405 123.038C119.782 122.743 119.185 123.136 116.867 125.954C115.111 128.051 114.846 128.576 114.846 129.755C114.846 130.476 115.078 131.524 115.376 132.082C115.939 133.196 115.807 133.982 114.813 134.867C114.118 135.456 114.118 135.456 113.488 134.736C113.157 134.31 112.362 132.311 111.733 130.312C111.07 128.281 110.176 126.085 109.712 125.397L108.851 124.185L107.891 124.906C107.096 125.463 106.963 125.758 107.129 126.446C107.427 127.789 110.11 134.539 111.236 136.865C112.196 138.831 112.296 138.93 112.826 138.471C113.157 138.176 113.488 137.947 113.588 137.947C114.018 137.947 114.813 140.601 115.343 143.845C116.138 148.596 116.436 149.218 118.39 150.07C119.252 150.463 120.378 150.857 120.875 150.955C122.365 151.25 125.148 149.677 127.267 147.383L129.089 145.385L131.474 146.204C132.799 146.663 134.985 147.449 136.31 147.908C137.635 148.399 139.556 148.858 140.616 148.956L142.504 149.12L144.425 147.416C146.711 145.417 147.505 143.976 148.035 140.928C148.797 136.603 147.439 132.802 144.69 131.59C143.199 130.902 143.365 131.295 141.841 124.906C140.98 121.334 140.914 121.203 139.457 120.023C137.138 118.156 134.389 117.566 131.938 118.451Z" fill="url(#paint25_linear)"/>
<path d="M105.756 123.976C105.498 124.72 106.079 125.145 106.725 124.773C107.145 124.508 107.177 124.348 106.822 123.976C106.273 123.392 105.982 123.392 105.756 123.976Z" fill="url(#paint26_linear)"/>
<path d="M105.756 123.976C105.498 124.72 106.079 125.145 106.725 124.773C107.145 124.508 107.177 124.348 106.822 123.976C106.273 123.392 105.982 123.392 105.756 123.976Z" fill="url(#paint27_linear)"/>
<path d="M22.0513 138.074C23.0636 141.676 23.1616 143.747 22.4105 146.298L22.1819 147.078L24.7291 147.288C26.1334 147.378 28.5173 147.679 30.0195 147.919C31.5544 148.159 32.8607 148.309 32.926 148.219C33.024 148.159 32.6974 147.348 32.2075 146.448C31.5544 145.218 30.2481 143.897 26.9825 141.046C24.5658 138.975 22.4432 137.264 22.2146 137.264C21.9533 137.264 21.888 137.534 22.0513 138.074Z" fill="url(#paint28_linear)"/>
<path d="M22.0513 138.074C23.0636 141.676 23.1616 143.747 22.4105 146.298L22.1819 147.078L24.7291 147.288C26.1334 147.378 28.5173 147.679 30.0195 147.919C31.5544 148.159 32.8607 148.309 32.926 148.219C33.024 148.159 32.6974 147.348 32.2075 146.448C31.5544 145.218 30.2481 143.897 26.9825 141.046C24.5658 138.975 22.4432 137.264 22.2146 137.264C21.9533 137.264 21.888 137.534 22.0513 138.074Z" fill="url(#paint29_linear)"/>
<defs>
<linearGradient id="paint0_linear" x1="131.774" y1="109.811" x2="-20.8317" y2="30.7713" gradientUnits="userSpaceOnUse">
<stop stop-color="#5ACFA4"/>
<stop offset="1" stop-color="#03668C"/>
</linearGradient>
<linearGradient id="paint1_linear" x1="99.5165" y1="109.811" x2="99.5165" y2="-9.91821e-05" gradientUnits="userSpaceOnUse">
<stop stop-color="#FE725A"/>
<stop offset="1" stop-color="#E66583"/>
</linearGradient>
<linearGradient id="paint2_linear" x1="72.75" y1="63.1415" x2="28.1831" y2="-20.563" gradientUnits="userSpaceOnUse">
<stop stop-color="#5ACFA4"/>
<stop offset="1" stop-color="#03668C"/>
</linearGradient>
<linearGradient id="paint3_linear" x1="39.1203" y1="63.1415" x2="39.1203" y2="31.5707" gradientUnits="userSpaceOnUse">
<stop stop-color="#FE725A"/>
<stop offset="1" stop-color="#E66583"/>
</linearGradient>
<linearGradient id="paint4_linear" x1="112.557" y1="49.415" x2="109.466" y2="41.2415" gradientUnits="userSpaceOnUse">
<stop stop-color="#5ACFA4"/>
<stop offset="1" stop-color="#03668C"/>
</linearGradient>
<linearGradient id="paint5_linear" x1="108.439" y1="49.415" x2="108.439" y2="46.6698" gradientUnits="userSpaceOnUse">
<stop stop-color="#FE725A"/>
<stop offset="1" stop-color="#E66583"/>
</linearGradient>
<linearGradient id="paint6_linear" x1="126.283" y1="48.0425" x2="124.278" y2="44.5083" gradientUnits="userSpaceOnUse">
<stop stop-color="#5ACFA4"/>
<stop offset="1" stop-color="#03668C"/>
</linearGradient>
<linearGradient id="paint7_linear" x1="124.91" y1="48.0425" x2="124.91" y2="46.6698" gradientUnits="userSpaceOnUse">
<stop stop-color="#FE725A"/>
<stop offset="1" stop-color="#E66583"/>
</linearGradient>
<linearGradient id="paint8_linear" x1="91.9669" y1="53.533" x2="89.9625" y2="49.9988" gradientUnits="userSpaceOnUse">
<stop stop-color="#5ACFA4"/>
<stop offset="1" stop-color="#03668C"/>
</linearGradient>
<linearGradient id="paint9_linear" x1="90.5943" y1="53.533" x2="90.5943" y2="52.1603" gradientUnits="userSpaceOnUse">
<stop stop-color="#FE725A"/>
<stop offset="1" stop-color="#E66583"/>
</linearGradient>
<linearGradient id="paint10_linear" x1="74.1226" y1="119.42" x2="-40.2695" y2="8.28188" gradientUnits="userSpaceOnUse">
<stop stop-color="#5ACFA4"/>
<stop offset="1" stop-color="#03668C"/>
</linearGradient>
<linearGradient id="paint11_linear" x1="37.0613" y1="119.42" x2="37.0613" y2="52.1604" gradientUnits="userSpaceOnUse">
<stop stop-color="#FE725A"/>
<stop offset="1" stop-color="#E66583"/>
</linearGradient>
<linearGradient id="paint12_linear" x1="91.9669" y1="127.656" x2="11.1966" y2="58.4835" gradientUnits="userSpaceOnUse">
<stop stop-color="#5ACFA4"/>
<stop offset="1" stop-color="#03668C"/>
</linearGradient>
<linearGradient id="paint13_linear" x1="68.632" y1="127.656" x2="68.632" y2="79.6132" gradientUnits="userSpaceOnUse">
<stop stop-color="#FE725A"/>
<stop offset="1" stop-color="#E66583"/>
</linearGradient>
<linearGradient id="paint14_linear" x1="78.2405" y1="142.755" x2="-7.16599" y2="69.4957" gradientUnits="userSpaceOnUse">
<stop stop-color="#5ACFA4"/>
<stop offset="1" stop-color="#03668C"/>
</linearGradient>
<linearGradient id="paint15_linear" x1="53.533" y1="142.755" x2="53.533" y2="91.9669" gradientUnits="userSpaceOnUse">
<stop stop-color="#FE725A"/>
<stop offset="1" stop-color="#E66583"/>
</linearGradient>
<linearGradient id="paint16_linear" x1="130.401" y1="108.438" x2="111.095" y2="98.2265" gradientUnits="userSpaceOnUse">
<stop stop-color="#5ACFA4"/>
<stop offset="1" stop-color="#03668C"/>
</linearGradient>
<linearGradient id="paint17_linear" x1="126.283" y1="108.438" x2="126.283" y2="94.7121" gradientUnits="userSpaceOnUse">
<stop stop-color="#FE725A"/>
<stop offset="1" stop-color="#E66583"/>
</linearGradient>
<linearGradient id="paint18_linear" x1="134.519" y1="116.674" x2="124.175" y2="112.115" gradientUnits="userSpaceOnUse">
<stop stop-color="#5ACFA4"/>
<stop offset="1" stop-color="#03668C"/>
</linearGradient>
<linearGradient id="paint19_linear" x1="132.46" y1="116.674" x2="132.46" y2="108.439" gradientUnits="userSpaceOnUse">
<stop stop-color="#FE725A"/>
<stop offset="1" stop-color="#E66583"/>
</linearGradient>
<linearGradient id="paint20_linear" x1="108.439" y1="122.165" x2="89.1327" y2="111.953" gradientUnits="userSpaceOnUse">
<stop stop-color="#5ACFA4"/>
<stop offset="1" stop-color="#03668C"/>
</linearGradient>
<linearGradient id="paint21_linear" x1="104.321" y1="122.165" x2="104.321" y2="108.439" gradientUnits="userSpaceOnUse">
<stop stop-color="#FE725A"/>
<stop offset="1" stop-color="#E66583"/>
</linearGradient>
<linearGradient id="paint22_linear" x1="53.533" y1="149.618" x2="-1.27082" y2="105.329" gradientUnits="userSpaceOnUse">
<stop stop-color="#5ACFA4"/>
<stop offset="1" stop-color="#03668C"/>
</linearGradient>
<linearGradient id="paint23_linear" x1="38.4339" y1="149.618" x2="38.4339" y2="116.674" gradientUnits="userSpaceOnUse">
<stop stop-color="#FE725A"/>
<stop offset="1" stop-color="#E66583"/>
</linearGradient>
<linearGradient id="paint24_linear" x1="148.245" y1="150.99" x2="92.4564" y2="89.5116" gradientUnits="userSpaceOnUse">
<stop stop-color="#5ACFA4"/>
<stop offset="1" stop-color="#03668C"/>
</linearGradient>
<linearGradient id="paint25_linear" x1="127.656" y1="150.99" x2="127.656" y2="118.047" gradientUnits="userSpaceOnUse">
<stop stop-color="#FE725A"/>
<stop offset="1" stop-color="#E66583"/>
</linearGradient>
<linearGradient id="paint26_linear" x1="107.066" y1="124.91" x2="104.749" y2="122.868" gradientUnits="userSpaceOnUse">
<stop stop-color="#5ACFA4"/>
<stop offset="1" stop-color="#03668C"/>
</linearGradient>
<linearGradient id="paint27_linear" x1="106.38" y1="124.91" x2="106.38" y2="123.538" gradientUnits="userSpaceOnUse">
<stop stop-color="#FE725A"/>
<stop offset="1" stop-color="#E66583"/>
</linearGradient>
<linearGradient id="paint28_linear" x1="32.9434" y1="148.245" x2="14.4067" y2="131.903" gradientUnits="userSpaceOnUse">
<stop stop-color="#5ACFA4"/>
<stop offset="1" stop-color="#03668C"/>
</linearGradient>
<linearGradient id="paint29_linear" x1="27.4528" y1="148.245" x2="27.4528" y2="137.264" gradientUnits="userSpaceOnUse">
<stop stop-color="#FE725A"/>
<stop offset="1" stop-color="#E66583"/>
</linearGradient>
</defs>
</svg>
