<svg width="185" height="189" viewBox="0 0 185 189" fill="none" xmlns="http://www.w3.org/2000/svg">
<path d="M117.107 0.887298C114.674 2.50963 107.982 14.9205 106.765 20.0714C105.792 24.2489 106.157 29.2376 107.819 33.6179C108.509 35.5241 109.361 37.3493 109.685 37.7143C110.577 38.6877 110.415 39.4177 109.361 39.0527C104.859 37.6737 100.681 32.5228 99.0994 26.3174C98.6127 24.4111 98.4505 22.5049 98.5721 19.4225C98.7344 14.4338 99.7483 11.7569 102.506 8.75562C104.413 6.68714 104.534 6.07877 103.236 4.57811C102.02 3.15857 100.519 3.44247 99.3428 5.34872C98.0854 7.41719 96.5442 13.3387 95.9764 18.2463C95.5303 22.1399 95.5708 23.1538 96.1386 25.8712C98.0043 34.9969 103.48 41.0806 111.145 42.6624L113.7 43.1897L112.038 44.812C111.105 45.6637 109.563 47.1238 108.59 48.0161C105.548 50.8146 101.817 57.7501 100.235 63.6716C99.3022 67.2002 99.3022 75.5552 100.276 80.4628C101.208 85.2892 103.074 91.0891 105.061 95.1855C106.197 97.619 107.495 99.4847 109.726 101.878C113.295 105.771 113.619 106.38 114.512 110.07C114.836 111.571 115.444 113.437 115.769 114.207C116.621 115.911 116.377 116.195 114.998 115.1C112.443 113.112 106.643 104.108 105.751 100.742C104.778 97.1728 104.169 96.1589 102.587 95.5099C99.9917 94.496 94.5569 93.6443 90.501 93.6443C86.8102 93.6443 83.4844 94.2526 83.4844 94.9016C83.4844 95.5099 86.4046 99.4847 89.0815 102.486C90.6227 104.189 93.2996 107.515 95.0436 109.868C96.7876 112.22 99.5861 115.586 101.29 117.371C102.993 119.155 105.264 121.711 106.359 123.009C107.454 124.306 110.091 126.659 112.24 128.2C114.39 129.782 116.823 131.729 117.675 132.499C119.054 133.838 119.216 133.919 119.825 133.31C120.19 132.945 120.717 131.607 120.96 130.268L121.447 127.916L122.137 130.147C122.502 131.364 123.272 133.148 123.881 134.122L124.895 135.825L126.801 134.527C127.855 133.797 128.748 133.189 128.829 133.148C129.315 132.905 124.895 120.981 122.258 115.505C121.488 113.842 120.92 112.463 120.96 112.382C121.041 112.342 122.826 112.991 124.935 113.883C129.599 115.83 133.128 116.519 136.616 116.154C139.536 115.87 145.255 114.086 148.378 112.504L150.406 111.449L151.257 113.396C151.704 114.451 152.353 115.951 152.636 116.641C152.961 117.371 153.326 117.979 153.448 117.979C154.299 117.979 156.489 116.681 156.489 116.195C156.489 115.14 155.232 111.733 154.38 110.598C153.691 109.584 153.65 109.381 154.218 108.367C154.543 107.759 155.759 106.136 156.895 104.798C159.41 101.918 161.032 98.6735 161.924 94.9421C163.141 89.6695 164.114 82.1257 163.912 79.5705L163.709 77.0559L161.356 78.2726C156.408 80.9089 154.34 80.6656 147.81 76.7314C140.428 72.27 138.847 70.3232 138.36 65.0506L138.117 62.4143H136.616C135.805 62.4143 134.791 62.6577 134.385 62.9821C133.655 63.5094 133.615 63.7122 134.101 65.4156C134.872 68.3358 134.71 70.1204 133.371 72.8784C131.952 75.8797 128.869 79.2866 125.503 81.5984C119.379 85.7759 114.512 85.7354 110.294 81.5173C108.387 79.6111 106.724 76.5692 106.359 74.2168C106.157 73.0812 105.873 72.5539 105.427 72.5539C105.061 72.5539 104.534 72.3917 104.21 72.1889C103.439 71.7022 104.048 70.1204 105.021 70.1204C105.589 70.1204 105.792 69.8365 105.792 68.9848C105.792 65.5779 107.901 61.8871 110.983 59.9403C114.795 57.5068 118.567 56.7362 130.938 55.7222C135.277 55.3572 140.226 54.7894 141.888 54.4649C143.551 54.1404 146.188 53.8971 147.729 53.8971C149.27 53.8971 151.217 53.6943 152.028 53.4509L153.569 52.9642L151.298 50.2874C148.459 46.8805 145.62 44.6903 142.051 43.068C136.373 40.4723 127.977 38.6471 124.611 39.2961C123.718 39.4583 121.69 39.9856 120.068 40.5128L117.067 41.4457L114.065 38.4443C112.038 36.457 110.577 34.5913 109.726 32.8473C108.59 30.576 108.468 29.846 108.468 26.7635C108.428 22.221 109.442 18.9763 113.173 11.6758L116.053 6.03821H117.756C120.676 6.03821 122.218 3.19912 120.555 0.84674C119.784 -0.288894 118.851 -0.288894 117.107 0.887298ZM124.976 88.615C125.706 88.98 127.45 90.2779 128.869 91.4947C130.289 92.7114 132.154 94.0498 133.047 94.496C134.872 95.4288 139.009 95.9966 143.957 96.0372C148.459 96.0778 150.568 96.7267 150.69 98.1057C150.811 99.3224 150.487 99.728 147.364 102.445C145.174 104.311 144.646 104.554 141.97 105.001C140.347 105.285 138.319 105.366 137.508 105.203C133.209 104.433 124.611 98.1462 122.745 94.4554C122.096 93.2387 121.609 92.0219 121.609 91.738C121.609 91.0891 123.151 87.9661 123.475 87.9661C123.597 87.9661 124.246 88.25 124.976 88.615Z" fill="#F75940"/>
<path d="M35.585 40.1072C26.7027 41.9729 18.8344 47.5699 11.5339 57.2634C8.61367 61.157 7.47804 63.1038 7.0319 65.1723C6.74799 66.4701 6.78855 66.5512 7.68083 66.2673C8.20809 66.1051 9.83042 65.2939 11.2905 64.4017C14.4946 62.4954 17.1309 61.5626 24.3503 59.7374C34.4899 57.2228 39.3975 57.0606 52.66 59.0074C67.7072 61.157 81.2131 67.7274 87.9864 76.0825C88.9192 77.2587 89.8926 78.2321 90.0954 78.2321C90.5415 78.2321 90.0954 76.0419 89.1626 73.9734C88.5136 72.4322 85.0662 67.2813 80.3208 60.792C77.1979 56.5333 70.9113 50.409 66.8555 47.7322C62.5563 44.9336 59.555 43.3924 55.0124 41.8107C47.8336 39.2555 41.9526 38.7282 35.585 40.1072Z" fill="#F75940"/>
<path d="M136.819 57.9123C136.373 58.1151 134.669 58.399 133.006 58.5612L130.045 58.8451L131.019 59.8185C131.952 60.7919 131.952 60.7919 135.115 60.1836C138.36 59.5752 140.672 58.6423 140.672 57.9528C140.672 57.4661 137.954 57.4661 136.819 57.9123Z" fill="#F75940"/>
<path d="M154.462 58.7641C154.462 59.3319 154.745 59.5752 155.394 59.5752C155.881 59.5752 156.692 59.6969 157.22 59.8186C158.071 60.0619 158.112 60.0214 157.666 59.0074C157.26 58.1962 156.895 57.9529 155.8 57.9529C154.745 57.9529 154.462 58.1151 154.462 58.7641Z" fill="#F75940"/>
<path d="M111.713 64.4017C111.307 65.0101 111.916 66.0646 112.646 66.0646C113.011 66.0646 113.741 65.7807 114.268 65.4156C114.998 64.8884 115.079 64.6856 114.674 64.4017C113.944 63.915 111.997 63.9555 111.713 64.4017Z" fill="#F75940"/>
<path d="M34.571 64.8478C34.1249 65.01 32.6648 65.294 31.3264 65.4562C26.4999 66.0646 17.5771 70.0798 13.1157 73.6895C9.01926 76.9748 3.94946 84.8025 1.75931 91.2513C-2.29652 103.135 0.785913 120.129 9.70875 135.217C11.0066 137.488 13.3184 140.408 15.8331 143.085C18.0638 145.437 20.0106 147.425 20.1728 147.506C20.335 147.546 20.6595 145.559 20.9029 143.044C22.2007 130.512 27.8789 118.669 37.5723 108.245C47.6308 97.3756 63.1647 88.2094 74.6427 86.3437C78.7796 85.6948 84.0117 85.857 87.9864 86.7899C89.9332 87.236 92.0422 87.5605 92.61 87.4794C93.5429 87.3577 93.2995 87.0738 89.771 83.9102C79.8747 75.1091 67.0583 68.4575 55.2963 66.1051C47.9553 64.645 36.7612 63.9555 34.571 64.8478Z" fill="#F75940"/>
<path d="M66.2471 100.093C64.2598 101.107 61.299 102.932 59.6767 104.108L56.7565 106.298L57.811 107.961C61.0151 113.112 73.5071 128.768 76.0217 130.796C77.0356 131.647 79.388 134.162 81.2537 136.393C83.1194 138.664 85.6746 141.503 87.013 142.76C90.4605 146.046 99.9511 153.711 102.75 155.496C104.088 156.347 105.589 157.402 106.116 157.848C107.008 158.7 107.049 158.7 108.428 157.929C109.969 157.118 112.2 154.076 113.457 151.075L114.268 149.25L110.942 147.019C102.709 141.544 90.0549 129.944 84.2956 122.643C78.9825 115.911 73.6287 106.745 72.2498 101.959C71.6008 99.8091 70.668 98.0651 70.1813 98.1462C70.0191 98.1868 68.275 99.0791 66.2471 100.093Z" fill="#F75940"/>
<path d="M44.4673 117.695C43.0072 119.318 41.1821 121.67 40.452 122.887C39.722 124.103 38.6269 125.726 38.0185 126.537L36.8829 127.997L39.5192 131.404C40.9793 133.27 44.1834 137.528 46.698 140.895C55.7425 152.9 60.4067 158.091 67.6667 164.135C70.2218 166.284 73.791 169.367 75.5755 171.03C79.388 174.518 82.9166 176.992 85.1473 177.641C86.648 178.127 86.8102 178.046 89.0409 176.586C90.3388 175.734 92.8128 173.95 94.5569 172.652C98.2882 169.813 98.2882 169.448 94.1107 167.258C91.1094 165.676 83.3222 160.119 77.5223 155.415C65.7199 145.883 52.6601 128.443 49.0504 117.452C48.5231 115.951 47.9147 114.735 47.6308 114.735C47.3875 114.735 45.9679 116.073 44.4673 117.695Z" fill="#F75940"/>
<path d="M156.773 118.75C155.922 119.399 154.705 120.169 154.015 120.413C152.88 120.899 152.799 121.062 153.042 122.4C153.488 124.915 155.719 128.849 158.112 131.485L160.424 134L161.924 133.31C163.466 132.54 163.587 132.175 163.384 128.727C163.263 126.375 159.734 117.574 158.964 117.574C158.599 117.574 157.625 118.101 156.773 118.75Z" fill="#F75940"/>
<path d="M162.817 135.135C162.127 135.622 162.127 135.866 162.573 137.204C162.857 138.056 163.709 140.084 164.439 141.746C165.737 144.504 165.94 144.748 167.035 144.748C168.17 144.748 168.251 144.667 168.008 143.612C167.643 142.03 164.358 134.852 163.912 134.73C163.709 134.649 163.222 134.852 162.817 135.135Z" fill="#F75940"/>
<path d="M128.626 136.028C127.936 136.595 126.679 137.326 125.908 137.65C124.327 138.34 124.246 138.502 124.895 140.895C126.071 145.234 127.693 148.276 129.762 150.02C131.627 151.602 131.871 151.683 132.966 151.237C133.574 150.994 134.507 150.345 135.034 149.777L135.926 148.804L135.196 145.356C134.426 141.665 132.641 137.447 131.262 135.906C130.208 134.811 130.208 134.811 128.626 136.028Z" fill="#F75940"/>
<path d="M29.8257 147.181C29.339 148.885 29.1362 151.237 29.1362 155.212V160.809L30.6774 162.269C31.4886 163.08 33.3949 164.459 34.8955 165.392C39.9248 168.515 48.4014 178.411 50.4294 183.521L51.0783 185.184L53.7957 185.468C57.2837 185.793 61.4612 185.793 64.9493 185.428L67.7072 185.184L65.7604 183.156C64.7059 182.061 60.8123 178.736 57.1215 175.775C53.4307 172.814 49.4154 169.285 48.1581 167.988C43.2505 162.958 36.6801 154.157 34.4899 149.777C33.2326 147.303 31.3669 144.748 30.7991 144.748C30.6369 144.748 30.1907 145.843 29.8257 147.181Z" fill="#F75940"/>
<path d="M164.845 147.79C163.993 148.074 162.289 149.29 161.113 150.467L158.964 152.576L157.057 152.048C155.192 151.521 155.151 151.521 154.259 152.616C153.488 153.59 153.164 153.711 151.947 153.468C149.96 153.103 149.23 153.59 146.39 157.078C144.241 159.673 143.916 160.322 143.916 161.782C143.916 162.675 144.2 163.972 144.565 164.662C145.255 166.041 145.093 167.014 143.876 168.109C143.024 168.839 143.024 168.839 142.254 167.947C141.848 167.42 140.875 164.946 140.104 162.472C139.293 159.957 138.198 157.24 137.63 156.388L136.575 154.887L135.399 155.78C134.426 156.469 134.264 156.834 134.466 157.686C134.831 159.349 138.117 167.704 139.496 170.583C140.672 173.017 140.793 173.139 141.442 172.571C141.848 172.206 142.254 171.922 142.375 171.922C142.902 171.922 143.876 175.207 144.525 179.222C145.498 185.103 145.863 185.874 148.256 186.928C149.311 187.415 150.69 187.902 151.298 188.024C153.123 188.389 156.53 186.442 159.126 183.603L161.356 181.129L164.277 182.143C165.899 182.71 168.576 183.684 170.198 184.252C171.821 184.86 174.173 185.428 175.471 185.549L177.783 185.752L180.135 183.643C182.934 181.169 183.907 179.385 184.556 175.613C185.489 170.259 183.826 165.554 180.459 164.054C178.634 163.202 178.837 163.689 176.971 155.78C175.917 151.359 175.836 151.197 174.051 149.736C171.212 147.425 167.846 146.695 164.845 147.79Z" fill="#F75940"/>
<path d="M131.952 154.036C131.627 154.603 132.357 154.928 133.168 154.644C133.696 154.441 133.736 154.319 133.29 154.036C132.601 153.589 132.236 153.589 131.952 154.036Z" fill="#F75940"/>
<path d="M28.1223 170.989C29.3796 175.856 29.5013 178.655 28.5684 182.102L28.2845 183.156L31.4481 183.44C33.1921 183.562 36.1528 183.968 38.0185 184.292C39.9248 184.617 41.5471 184.819 41.6282 184.698C41.7499 184.617 41.3443 183.522 40.7359 182.305C39.9248 180.642 38.3024 178.857 34.2466 175.004C31.2453 172.206 28.609 169.894 28.3251 169.894C28.0006 169.894 27.9195 170.259 28.1223 170.989Z" fill="#F75940"/>
</svg>
